<svg width="73" height="82" viewBox="0 0 73 82" fill="none" xmlns="http://www.w3.org/2000/svg">
<g opacity="0.7" clip-path="url(#clip0_19_596)">
<path d="M12.674 80.0909C12.3853 80.4837 11.9273 80.6764 11.3499 80.6764C10.6032 80.6764 10.1228 80.1935 10.1228 79.568C10.1228 78.9425 10.6231 78.5346 11.4743 78.5271H12.6616V78.3144C12.6616 77.784 12.333 77.4662 11.6958 77.4662C11.2976 77.4662 10.9292 77.6189 10.5509 77.8791L10.3244 77.4863C10.7898 77.176 11.1806 76.9958 11.7979 76.9958C12.6889 76.9958 13.1818 77.4712 13.1892 78.2494L13.1967 80.6464H12.6765V80.0884L12.674 80.0909ZM12.6665 79.3953V78.96H11.5415C10.9392 78.96 10.6231 79.1451 10.6231 79.5454C10.6231 79.9458 10.9442 80.206 11.4519 80.206C12.0617 80.206 12.5272 79.8957 12.6641 79.3928L12.6665 79.3953Z" fill="white"/>
<path d="M14.9962 75.9775C14.9962 76.1902 14.8444 76.3503 14.6478 76.3503C14.4512 76.3503 14.2968 76.1927 14.2968 75.9775C14.2968 75.7624 14.4487 75.6047 14.6478 75.6047C14.8469 75.6047 14.9962 75.7624 14.9962 75.9775ZM14.3864 80.6489V77.0184H14.9141V80.6489H14.3864Z" fill="white"/>
<path d="M16.751 77.824C16.9899 77.2936 17.4355 77.0034 18.0478 76.9958V77.5413C17.2861 77.5288 16.8132 78.0042 16.751 78.7198V80.6489H16.2159V77.0184H16.751V77.824Z" fill="white"/>
<path d="M20.6314 80.4011C20.3775 80.5738 20.1037 80.6689 19.815 80.6764C19.2873 80.6764 18.8965 80.3586 18.8965 79.643V77.5688H18.3763V77.1335H18.8965V76.1752H19.4242V77.1335L20.5691 77.126V77.5663H19.4242V79.5429C19.4242 79.9833 19.5959 80.1484 19.9046 80.1484C20.0888 80.1484 20.2804 80.0859 20.4795 79.9633L20.6314 80.3986V80.4011Z" fill="white"/>
<path d="M21.9754 77.824C22.2144 77.2936 22.6599 77.0034 23.2697 76.9958V77.5413C22.5081 77.5288 22.0351 78.0042 21.9754 78.7198V80.6489H21.4403V77.0184H21.9754V77.824Z" fill="white"/>
<path d="M24.6013 75.9775C24.6013 76.1902 24.4495 76.3503 24.2504 76.3503C24.0512 76.3503 23.9019 76.1927 23.9019 75.9775C23.9019 75.7624 24.0537 75.6047 24.2504 75.6047C24.447 75.6047 24.6013 75.7624 24.6013 75.9775ZM23.9915 80.6489V77.0184H24.5192V80.6489H23.9915Z" fill="white"/>
<path d="M29.5146 78.8449C29.5146 79.9208 28.8152 80.6714 27.7947 80.6714C27.1501 80.6714 26.6572 80.3762 26.3884 79.8708V81.9875H25.8533V77.0184H26.3884V77.8041C26.6547 77.2937 27.1501 76.9984 27.7798 76.9984C28.8003 76.9984 29.5146 77.7565 29.5146 78.8449ZM28.9745 78.8299C28.9745 78.0518 28.4394 77.4788 27.6852 77.4788C26.931 77.4788 26.3884 78.0443 26.3884 78.8299C26.3884 79.6156 26.9236 80.181 27.6852 80.181C28.4468 80.181 28.9745 79.6156 28.9745 78.8299Z" fill="white"/>
<path d="M35.6376 78.4096V80.6489H35.1024V78.5547C35.1024 77.9142 34.7191 77.5339 34.0819 77.5339C33.3701 77.5414 32.9295 78.0092 32.8698 78.6998V80.6489H32.3347V77.0184H32.8698V77.8191C33.1237 77.2686 33.609 77.0059 34.2686 76.9984C35.1323 76.9984 35.6401 77.5364 35.6401 78.4121L35.6376 78.4096Z" fill="white"/>
<path d="M39.0699 80.0909C38.7812 80.4837 38.3232 80.6764 37.7457 80.6764C36.999 80.6764 36.5187 80.1935 36.5187 79.568C36.5187 78.9425 37.019 78.5346 37.8702 78.5271H39.0575V78.3144C39.0575 77.784 38.7289 77.4662 38.0917 77.4662C37.6935 77.4662 37.3226 77.6189 36.9468 77.8791L36.7203 77.4863C37.1857 77.176 37.5765 76.9958 38.1938 76.9958C39.0848 76.9958 39.5777 77.4712 39.5851 78.2494L39.5926 80.6464H39.0724V80.0884L39.0699 80.0909ZM39.0649 79.3953V78.96H37.9399C37.3375 78.96 37.0214 79.1451 37.0214 79.5454C37.0214 79.9458 37.3425 80.206 37.8503 80.206C38.4601 80.206 38.9255 79.8957 39.0624 79.3928L39.0649 79.3953Z" fill="white"/>
<path d="M41.4419 80.6489L40.0083 77.0184H40.5782L41.7306 80.091L42.8756 77.0184H43.4182L41.9995 80.6489H41.4444H41.4419Z" fill="white"/>
<path d="M44.6577 75.9775C44.6577 76.1902 44.5059 76.3503 44.3092 76.3503C44.1126 76.3503 43.9583 76.1927 43.9583 75.9775C43.9583 75.7624 44.1101 75.6047 44.3092 75.6047C44.5084 75.6047 44.6577 75.7624 44.6577 75.9775ZM44.0479 80.6489V77.0184H44.5756V80.6489H44.0479Z" fill="white"/>
<path d="M49.0234 80.271C49.0234 81.3319 48.3041 82 47.2065 82C46.6365 81.9925 46.1636 81.8073 45.7255 81.477L45.9719 81.0642C46.3278 81.3594 46.7062 81.5196 47.1865 81.5271C47.9756 81.5271 48.4883 81.0442 48.4883 80.2861V79.7356C48.2344 80.2185 47.769 80.4937 47.1592 80.4937C46.186 80.4937 45.5139 79.7706 45.5139 78.7373C45.5139 77.7039 46.1785 77.0084 47.1442 77.0009C47.7615 77.0009 48.2269 77.2761 48.4883 77.759V77.0209H49.0234V80.2735V80.271ZM48.4883 78.7548C48.4883 77.9967 47.9731 77.4662 47.2537 77.4662C46.5344 77.4662 46.0192 78.0042 46.0117 78.7548C46.0192 79.4979 46.527 80.0359 47.2537 80.0359C47.9805 80.0359 48.4883 79.4979 48.4883 78.7548Z" fill="white"/>
<path d="M52.4782 80.0909C52.1894 80.4837 51.7315 80.6764 51.154 80.6764C50.4073 80.6764 49.9269 80.1935 49.9269 79.568C49.9269 78.9425 50.4272 78.5346 51.2785 78.5271H52.4632V78.3144C52.4632 77.784 52.1347 77.4662 51.4975 77.4662C51.0992 77.4662 50.7309 77.6189 50.3526 77.8791L50.1261 77.4863C50.5915 77.176 50.9823 76.9958 51.5995 76.9958C52.4906 76.9958 52.9834 77.4712 52.9909 78.2494L52.9984 80.6464H52.4782V80.0884V80.0909ZM52.4707 79.3953V78.96H51.3457C50.7433 78.96 50.4272 79.1451 50.4272 79.5454C50.4272 79.9458 50.7483 80.206 51.2561 80.206C51.8659 80.206 52.3313 79.8957 52.4682 79.3928L52.4707 79.3953Z" fill="white"/>
<path d="M56.0573 80.4011C55.8035 80.5738 55.5297 80.6689 55.241 80.6764C54.7133 80.6764 54.3225 80.3586 54.3225 79.643V77.5688H53.8023V77.1335H54.3225V76.1752H54.8502V77.1335L55.9951 77.126V77.5663H54.8502V79.5429C54.8502 79.9833 55.0219 80.1484 55.3306 80.1484C55.5147 80.1484 55.7064 80.0859 55.9055 79.9633L56.0573 80.3986V80.4011Z" fill="white"/>
<path d="M60.107 78.8299C60.107 79.9183 59.3453 80.6689 58.2775 80.6689C57.2098 80.6689 56.4481 79.9183 56.4481 78.8299C56.4481 77.7415 57.2098 77.0034 58.2775 77.0034C59.3453 77.0034 60.107 77.7465 60.107 78.8299ZM56.9808 78.8374C56.9808 79.6356 57.5234 80.1885 58.2775 80.1885C59.0317 80.1885 59.5743 79.6381 59.5743 78.8374C59.5743 78.0368 59.0317 77.4938 58.2775 77.4938C57.5234 77.4938 56.9808 78.0443 56.9808 78.8374Z" fill="white"/>
<path d="M61.5804 77.824C61.8194 77.2936 62.2649 77.0034 62.8772 76.9958V77.5413C62.1156 77.5288 61.6427 78.0042 61.5804 78.7198V80.6489H61.0453V77.0184H61.5804V77.824Z" fill="white"/>
<path d="M9.02762 70.5931L8.03202 68.2662H3.53936L2.54376 70.5931H0L4.62955 59.8242H6.94432L11.5739 70.5931H9.03011H9.02762ZM5.7944 63.0269L4.44536 66.1544H7.12851L5.7944 63.0269Z" fill="white"/>
<path d="M12.8134 59.8242H15.2053V70.5931H12.8134V59.8242Z" fill="white"/>
<path d="M26.5303 63.3972C26.5303 65.1236 25.8508 66.2371 24.4918 66.74L27.2048 70.5906H24.2628L21.8883 67.1553H20.2331V70.5906H17.8412V59.8218H21.9032C23.5684 59.8218 24.7556 60.1045 25.4675 60.67C26.1769 61.2354 26.5328 62.1437 26.5328 63.3972H26.5303ZM23.648 64.6758C23.9442 64.4081 24.0936 63.9852 24.0936 63.4047C24.0936 62.8243 23.9392 62.4264 23.6331 62.2112C23.3269 61.9961 22.7893 61.8885 22.0227 61.8885H20.2306V65.0786H21.9779C22.7943 65.0786 23.3518 64.946 23.648 64.6783V64.6758Z" fill="white"/>
<path d="M28.982 70.5931V59.8242H31.3739V68.4513H35.9412V70.5931H28.982Z" fill="white"/>
<path d="M37.6885 59.8242H40.0804V70.5931H37.6885V59.8242Z" fill="white"/>
<path d="M50.2107 59.8242H52.6026V70.5931H50.2107L45.1082 63.845V70.5931H42.7163V59.8242H44.9539L50.2107 66.7574V59.8242Z" fill="white"/>
<path d="M62.9618 59.8242V61.966H57.6279V64.1853H62.4242V66.2345H57.6279V68.4688H63.1311V70.5956H55.2385V59.8267H62.9643L62.9618 59.8242Z" fill="white"/>
<path d="M67.7656 61.9735C67.5366 62.1637 67.4221 62.4164 67.4221 62.7291C67.4221 63.0419 67.5615 63.2921 67.8428 63.4772C68.124 63.6624 68.7712 63.8801 69.7892 64.1328C70.8047 64.3855 71.5962 64.7633 72.1562 65.2662C72.7187 65.7691 73 66.5047 73 67.4705C73 68.4363 72.6391 69.2195 71.9198 69.82C71.2005 70.4205 70.2521 70.7207 69.0773 70.7207C67.3798 70.7207 65.8541 70.0902 64.4951 68.8266L65.9213 67.0702C67.0762 68.086 68.144 68.5965 69.1246 68.5965C69.5627 68.5965 69.9087 68.5014 70.16 68.3112C70.4114 68.1211 70.5359 67.8634 70.5359 67.5406C70.5359 67.2178 70.404 66.9601 70.1376 66.77C69.8713 66.5798 69.3461 66.3871 68.5596 66.192C67.3126 65.8942 66.4016 65.5064 65.8242 65.0285C65.2467 64.5506 64.958 63.8025 64.958 62.7792C64.958 61.7558 65.3239 60.9677 66.0532 60.4147C66.7825 59.8593 67.6959 59.5815 68.7886 59.5815C69.5029 59.5815 70.2198 59.7041 70.9341 59.9518C71.6485 60.1996 72.2732 60.5473 72.8034 61.0002L71.5937 62.7567C70.6628 62.0486 69.7021 61.6933 68.7114 61.6933C68.3132 61.6933 67.9996 61.7884 67.7681 61.9785L67.7656 61.9735Z" fill="white"/>
<path d="M45.9819 2.87987C44.9614 1.10091 43.0598 0 41.0188 0H31.9563C29.9153 0 28.0137 1.10341 26.9932 2.87987L8.04446 35.872C7.02397 37.6485 7.02397 39.8553 8.04446 41.6318L12.5919 49.5358C13.6149 51.3122 15.5165 52.4156 17.5574 52.4156H25.455C27.496 52.4156 29.3976 51.3122 30.4181 49.5358L32.8374 45.3223C33.38 44.3815 33.6638 43.3056 33.6638 42.2198V33.5776C33.6638 32.8896 32.8847 32.4967 32.3346 32.9046L19.138 42.1522C18.782 42.4174 18.2792 42.3123 18.0552 41.9295L16.517 39.2848C16.2731 38.8645 16.3428 38.3265 16.6888 37.9838L32.4865 22.9339C33.2382 22.1883 33.6663 21.1649 33.6663 20.104V13.4286C33.6663 12.0874 34.6196 8.94987 35.884 8.23428C36.2275 8.03912 36.6755 8.04412 36.9667 8.16422C38.3008 8.71217 39.3288 12.0374 39.3288 13.4286V20.104C39.3288 21.1649 39.7544 22.1883 40.5085 22.9339L55.1389 37.9838C55.4849 38.3265 55.5546 38.8645 55.3106 39.2848L53.7724 41.9295C53.5484 42.3123 53.0457 42.4174 52.6897 42.1522L40.6604 32.9046C40.1103 32.4942 39.3312 32.8896 39.3312 33.5776V42.2198C39.3312 43.3082 39.6175 44.379 40.1576 45.3223L42.5769 49.5383C43.5974 51.3147 45.499 52.4181 47.54 52.4181H55.3803C57.4238 52.4181 59.3279 51.3197 60.3608 49.5483L64.9406 41.6768C65.9711 39.9054 65.976 37.701 64.9555 35.9246L45.9819 2.87987Z" fill="white"/>
</g>
<defs>
<clipPath id="clip0_19_596">
<rect width="73" height="82" fill="white"/>
</clipPath>
</defs>
</svg>
