<svg width="20" height="23" viewBox="0 0 20 23" fill="none" xmlns="http://www.w3.org/2000/svg">
<path d="M5 13.5C5 12.9477 5.44772 12.5 6 12.5C6.55229 12.5 7 12.9477 7 13.5C7 14.0523 6.55229 14.5 6 14.5C5.44772 14.5 5 14.0523 5 13.5Z" fill="#0F0F0F"/>
<path d="M6 16.5C5.44772 16.5 5 16.9477 5 17.5C5 18.0523 5.44772 18.5 6 18.5C6.55229 18.5 7 18.0523 7 17.5C7 16.9477 6.55229 16.5 6 16.5Z" fill="#0F0F0F"/>
<path d="M9 13.5C9 12.9477 9.44772 12.5 10 12.5C10.5523 12.5 11 12.9477 11 13.5C11 14.0523 10.5523 14.5 10 14.5C9.44772 14.5 9 14.0523 9 13.5Z" fill="#0F0F0F"/>
<path d="M10 16.5C9.44772 16.5 9 16.9477 9 17.5C9 18.0523 9.44772 18.5 10 18.5C10.5523 18.5 11 18.0523 11 17.5C11 16.9477 10.5523 16.5 10 16.5Z" fill="#0F0F0F"/>
<path d="M13 13.5C13 12.9477 13.4477 12.5 14 12.5C14.5523 12.5 15 12.9477 15 13.5C15 14.0523 14.5523 14.5 14 14.5C13.4477 14.5 13 14.0523 13 13.5Z" fill="#0F0F0F"/>
<path d="M14 16.5C13.4477 16.5 13 16.9477 13 17.5C13 18.0523 13.4477 18.5 14 18.5C14.5523 18.5 15 18.0523 15 17.5C15 16.9477 14.5523 16.5 14 16.5Z" fill="#0F0F0F"/>
<path fill-rule="evenodd" clip-rule="evenodd" d="M4 1.5C4 0.947715 4.44772 0.5 5 0.5C5.55228 0.5 6 0.947715 6 1.5V2.5H14V1.5C14 0.947715 14.4477 0.5 15 0.5C15.5523 0.5 16 0.947715 16 1.5V2.5H17C18.6569 2.5 20 3.84315 20 5.5V19.5C20 21.1569 18.6569 22.5 17 22.5H3C1.34315 22.5 0 21.1569 0 19.5V5.5C0 3.84315 1.34315 2.5 3 2.5H4V1.5ZM14 4.5V5.5C14 6.05228 14.4477 6.5 15 6.5C15.5523 6.5 16 6.05228 16 5.5V4.5H17C17.5523 4.5 18 4.94772 18 5.5V8.5H2V5.5C2 4.94772 2.44772 4.5 3 4.5H4V5.5C4 6.05228 4.44772 6.5 5 6.5C5.55228 6.5 6 6.05228 6 5.5V4.5H14ZM2 10.5V19.5C2 20.0523 2.44772 20.5 3 20.5H17C17.5523 20.5 18 20.0523 18 19.5V10.5H2Z" fill="#0F0F0F"/>
</svg>
