<svg xmlns="http://www.w3.org/2000/svg" width="45" height="45" viewBox="0 0 45 45" fill="none">
  <g filter="url(#filter0_d_481_475)">
    <path d="M22.5 36C31.6127 36 39 28.6127 39 19.5C39 10.3873 31.6127 3 22.5 3C13.3873 3 6 10.3873 6 19.5C6 28.6127 13.3873 36 22.5 36Z" fill="white"/>
  </g>
  <path d="M24.3041 19.481L29.1041 14.681C29.2931 14.4663 29.393 14.1876 29.3837 13.9018C29.3744 13.6159 29.2564 13.3444 29.0538 13.1424C28.8513 12.9405 28.5794 12.8234 28.2935 12.815C28.0076 12.8065 27.7292 12.9074 27.5151 13.097L22.7151 17.897L17.9151 13.097C17.8147 12.9782 17.6908 12.8815 17.5511 12.8131C17.4114 12.7447 17.2591 12.706 17.1037 12.6995C16.9483 12.693 16.7932 12.7188 16.6483 12.7753C16.5034 12.8318 16.3718 12.9177 16.2618 13.0277C16.1518 13.1377 16.0659 13.2693 16.0094 13.4142C15.9529 13.5591 15.9271 13.7142 15.9336 13.8696C15.9401 14.025 15.9788 14.1773 16.0472 14.317C16.1157 14.4567 16.2123 14.5806 16.3311 14.681L21.1311 19.481L16.3311 24.281C16.1492 24.4963 16.0548 24.772 16.0666 25.0536C16.0784 25.3351 16.1956 25.602 16.3949 25.8013C16.5941 26.0006 16.861 26.1177 17.1426 26.1295C17.4241 26.1413 17.6999 26.0469 17.9151 25.865L22.7151 21.065L27.5151 25.865C27.6155 25.9838 27.7395 26.0805 27.8791 26.1489C28.0188 26.2173 28.1712 26.256 28.3266 26.2625C28.482 26.269 28.637 26.2432 28.7819 26.1867C28.9268 26.1302 29.0585 26.0443 29.1684 25.9343C29.2784 25.8243 29.3644 25.6927 29.4209 25.5478C29.4774 25.4029 29.5032 25.2478 29.4967 25.0924C29.4901 24.937 29.4514 24.7847 29.383 24.645C29.3146 24.5053 29.2179 24.3814 29.0991 24.281L24.3041 19.481Z" fill="black"/>
  <defs>
    <filter id="filter0_d_481_475" x="0" y="0" width="45" height="45" filterUnits="userSpaceOnUse" color-interpolation-filters="sRGB">
      <feFlood flood-opacity="0" result="BackgroundImageFix"/>
      <feColorMatrix in="SourceAlpha" type="matrix" values="0 0 0 0 0 0 0 0 0 0 0 0 0 0 0 0 0 0 127 0" result="hardAlpha"/>
      <feOffset dy="3"/>
      <feGaussianBlur stdDeviation="3"/>
      <feColorMatrix type="matrix" values="0 0 0 0 0 0 0 0 0 0 0 0 0 0 0 0 0 0 0.161 0"/>
      <feBlend mode="normal" in2="BackgroundImageFix" result="effect1_dropShadow_481_475"/>
      <feBlend mode="normal" in="SourceGraphic" in2="effect1_dropShadow_481_475" result="shape"/>
    </filter>
  </defs>
</svg>