<svg width="23" height="23" viewBox="0 0 23 23" fill="none" xmlns="http://www.w3.org/2000/svg">
<path d="M11.5001 23C1.29213 22.9897 -3.84243 10.5807 3.36841 3.3491C7.64896 -1.11604 15.3512 -1.11676 19.6318 3.34928C26.8425 10.5815 21.7074 22.9903 11.5001 23ZM11.5001 1.7762C6.14974 1.7762 1.79696 6.13324 1.79696 11.4888C2.32996 24.3738 20.6721 24.3701 21.2032 11.4887C21.2032 6.13328 16.8503 1.7762 11.5001 1.7762ZM15.6842 14.4052L12.8456 11.5639C12.8706 11.1443 12.6918 10.7432 12.398 10.4829C12.3983 10.4736 12.3985 10.4641 12.3985 10.4546V5.19364C12.3511 4.00043 10.6487 4.00133 10.6016 5.19364V10.4546C10.6016 10.4641 10.6018 10.4736 10.6021 10.4829C9.66253 11.3248 10.2999 12.9015 11.575 12.8357L14.4136 15.677C14.7644 16.0283 15.3333 16.0283 15.6841 15.677C16.035 15.3258 16.035 14.7564 15.6842 14.4052Z" fill="#FFC107"/>
</svg>
