<svg width="94" height="40" viewBox="0 0 94 40" fill="none" xmlns="http://www.w3.org/2000/svg">
<rect width="94" height="40" rx="20" fill="#FFC107"/>
<path d="M37.0495 13.9081C36.2486 13.9081 35.4656 13.6762 34.7997 13.2418C34.1338 12.8073 33.6147 12.1897 33.3082 11.4672C33.0018 10.7447 32.9216 9.94969 33.0778 9.18267C33.2341 8.41566 33.6197 7.71111 34.1861 7.15812C34.7524 6.60514 35.4739 6.22855 36.2595 6.07598C37.045 5.92341 37.8592 6.00171 38.5991 6.30099C39.3391 6.60026 39.9715 7.10707 40.4165 7.75731C40.8614 8.40755 41.0989 9.17203 41.0989 9.95407C41.0989 10.4733 40.9942 10.9875 40.7907 11.4672C40.5872 11.947 40.2889 12.3829 39.9129 12.75C39.5368 13.1172 39.0904 13.4084 38.5991 13.6072C38.1078 13.8059 37.5812 13.9081 37.0495 13.9081ZM38.4005 33.682V17.8587C38.4005 17.5092 38.2583 17.1739 38.0051 16.9268C37.752 16.6796 37.4086 16.5407 37.0507 16.5407C36.6927 16.5407 36.3493 16.6796 36.0962 16.9268C35.843 17.1739 35.7008 17.5092 35.7008 17.8587V33.682C35.7008 34.0315 35.843 34.3668 36.0962 34.614C36.3493 34.8611 36.6927 35 37.0507 35C37.4086 35 37.752 34.8611 38.0051 34.614C38.2583 34.3668 38.4005 34.0315 38.4005 33.682ZM42.4499 25.7727C42.4521 26.5886 42.7127 27.3839 43.196 28.0496C43.6794 28.7152 44.3617 29.2185 45.1496 29.4905V33.682C45.1496 34.0315 45.2918 34.3668 45.5449 34.614C45.7981 34.8611 46.1414 35 46.4994 35C46.8574 35 47.2007 34.8611 47.4539 34.614C47.707 34.3668 47.8492 34.0315 47.8492 33.682V29.4893C48.5494 29.2473 49.168 28.822 49.6372 28.2598C50.1065 27.6976 50.4083 27.0202 50.5097 26.3017C50.6112 25.5832 50.5083 24.8514 50.2123 24.1862C49.9163 23.521 49.4386 22.9481 48.8316 22.5301C48.2245 22.1122 47.5114 21.8654 46.7704 21.8167C46.0293 21.7679 45.2887 21.9191 44.6298 22.2538C43.9708 22.5884 43.4188 23.0936 43.0341 23.714C42.6494 24.3345 42.4469 25.0463 42.4488 25.7715L42.4499 25.7727ZM45.1496 7.31919V17.8587C45.1496 18.2083 45.2918 18.5435 45.5449 18.7907C45.7981 19.0379 46.1414 19.1768 46.4994 19.1768C46.8574 19.1768 47.2007 19.0379 47.4539 18.7907C47.707 18.5435 47.8492 18.2083 47.8492 17.8587V7.31919C47.8492 6.96962 47.707 6.63438 47.4539 6.3872C47.2007 6.14002 46.8574 6.00116 46.4994 6.00116C46.1414 6.00116 45.7981 6.14002 45.5449 6.3872C45.2918 6.63438 45.1496 6.96962 45.1496 7.31919ZM54.6007 23.1366V33.682C54.6007 34.0315 54.7429 34.3668 54.9961 34.614C55.2492 34.8611 55.5925 35 55.9505 35C56.3085 35 56.6519 34.8611 56.905 34.614C57.1581 34.3668 57.3003 34.0315 57.3003 33.682V23.1366C57.3003 22.7871 57.1581 22.4518 56.905 22.2046C56.6519 21.9575 56.3085 21.8186 55.9505 21.8186C55.5925 21.8186 55.2492 21.9575 54.9961 22.2046C54.7429 22.4518 54.6007 22.7871 54.6007 23.1366ZM54.6007 7.31803V11.5095C53.7001 11.8204 52.941 12.4322 52.4577 13.2368C51.9743 14.0413 51.7978 14.9868 51.9594 15.9061C52.1209 16.8254 52.6101 17.6594 53.3404 18.2606C54.0708 18.8618 54.9953 19.1915 55.9505 19.1915C56.9058 19.1915 57.8303 18.8618 58.5606 18.2606C59.291 17.6594 59.7801 16.8254 59.9417 15.9061C60.1032 14.9868 59.9267 14.0413 59.4434 13.2368C58.96 12.4322 58.201 11.8204 57.3003 11.5095V7.31919C57.3003 6.96962 57.1581 6.63438 56.905 6.3872C56.6519 6.14002 56.3085 6.00116 55.9505 6.00116C55.5925 6.00116 55.2492 6.14002 54.9961 6.3872C54.7429 6.63438 54.6007 6.96847 54.6007 7.31803Z" fill="white"/>
</svg>
