<svg width="14" height="18" viewBox="0 0 14 18" fill="none" xmlns="http://www.w3.org/2000/svg">
<path d="M6.97747 0C3.39957 0 0.488739 2.91588 0.488739 6.49996C0.488739 10.9479 6.29552 17.4778 6.54275 17.7536C6.77497 18.0127 7.1804 18.0122 7.4122 17.7536C7.65943 17.4778 13.4662 10.9479 13.4662 6.49996C13.4661 2.91588 10.5553 0 6.97747 0ZM6.97747 9.77028C5.17734 9.77028 3.71286 8.30322 3.71286 6.49996C3.71286 4.69671 5.17737 3.22969 6.97747 3.22969C8.77757 3.22969 10.242 4.69674 10.242 6.5C10.242 8.30326 8.77757 9.77028 6.97747 9.77028Z" fill="#FFC107"/>
</svg>
