<svg width="15" height="14" viewBox="0 0 15 14" fill="none" xmlns="http://www.w3.org/2000/svg">
<path d="M7.47661 0C3.62338 0 0.488739 3.14003 0.488739 6.99987C0.488739 10.8597 3.62338 14 7.47661 14C11.3298 14 14.4645 10.8597 14.4645 6.99987C14.4645 3.14003 11.3298 0 7.47661 0ZM12.7734 9.73435H10.1666C10.2867 9.0207 10.3589 8.2672 10.3815 7.51421H13.4142C13.3462 8.3086 13.1223 9.05851 12.7734 9.73435ZM7.47661 12.9711C7.02477 12.9711 6.45432 12.1636 6.05947 10.7628H8.89374C8.4989 12.1638 7.92845 12.9711 7.47661 12.9711ZM5.82457 9.73435C5.70519 9.07651 5.62432 8.33329 5.59993 7.51421H9.35303C9.32864 8.33329 9.24777 9.07625 9.12839 9.73435H5.82457ZM1.53927 7.51421H4.57173C4.59433 8.2672 4.66647 9.0207 4.78662 9.73435H2.18006C1.83117 9.05851 1.6073 8.3086 1.53927 7.51421ZM2.18006 4.26566H4.78687C4.66672 4.9793 4.59458 5.73254 4.57199 6.48553H1.53927C1.6073 5.69114 1.83117 4.94124 2.18006 4.26566ZM7.47661 1.02867C7.92845 1.02867 8.4989 1.83593 8.89374 3.23698H6.05947C6.45432 1.83593 7.02477 1.02867 7.47661 1.02867ZM9.12865 4.26566C9.24803 4.92349 9.3289 5.66645 9.35329 6.48553H5.59993C5.62432 5.66645 5.70519 4.92349 5.82457 4.26566H9.12865ZM10.3815 6.48553C10.3589 5.73254 10.2867 4.9793 10.1666 4.26566H12.7734C13.1223 4.94124 13.3462 5.69114 13.4142 6.48553H10.3815ZM12.1008 3.23698H9.95223C9.76379 2.49016 9.51579 1.82075 9.21029 1.28713C10.3586 1.63739 11.3606 2.32609 12.1008 3.23698ZM5.74293 1.28713C5.43742 1.82101 5.18942 2.49042 5.00098 3.23698H2.85243C3.59258 2.32609 4.59458 1.63739 5.74293 1.28713ZM2.85269 10.763H5.00098C5.18942 11.5098 5.43742 12.179 5.74293 12.7129C4.59458 12.3624 3.59258 11.6737 2.85269 10.763ZM9.21029 12.7129C9.51579 12.179 9.76379 11.5096 9.95223 10.763H12.1008C11.3606 11.6739 10.3586 12.3626 9.21029 12.7129Z" fill="#FFC107"/>
</svg>
