<svg width="110" height="37" viewBox="0 0 110 37" fill="none" xmlns="http://www.w3.org/2000/svg">
<g clip-path="url(#clip0_27_280)">
<path d="M18.428 1.16508C17.943 1.16508 17.216 1.19908 16.779 1.21908C16.606 1.22708 16.481 1.23308 16.449 1.23308C16.3683 1.23078 16.2876 1.22745 16.207 1.22308L14.127 1.16508C13.662 1.16508 13.638 1.23108 13.638 1.24508C13.638 1.27208 13.689 1.30208 13.832 1.30208C14.064 1.30208 14.492 1.30208 14.812 1.34708C15.012 1.37108 15.169 1.43108 15.302 1.52008V11.5431L5.96201 0.65008V0.60508L5.94101 0.62508L5.92201 0.60508V0.64008L3.57001 2.84508V13.0331L1.85001 15.2731C3.15001 15.6351 3.52301 16.5751 3.57101 17.7121V18.3601L5.96401 16.1201V4.26608L17.678 17.7961V17.7781L17.693 17.7961V1.39308H17.676C17.7356 1.37135 17.7972 1.35593 17.86 1.34708C18.056 1.32508 18.4 1.30208 18.612 1.30208C18.738 1.30208 18.782 1.27208 18.782 1.24508C18.782 1.23108 18.764 1.16508 18.43 1.16508H18.428ZM15.302 14.1351L5.96201 3.29008V1.63008L15.302 12.4581V14.1351ZM29.47 1.15808L28.554 0.24208L27.636 1.15808C23.531 1.61408 20.336 5.09308 20.336 9.32108C20.3364 11.3413 21.081 13.2906 22.4276 14.7965C23.7742 16.3025 25.6284 17.2596 27.636 17.4851L28.554 18.4011L29.47 17.4851C31.4756 17.2573 33.3271 16.2992 34.6714 14.7935C36.0157 13.2878 36.7587 11.34 36.7587 9.32158C36.7587 7.30313 36.0157 5.35531 34.6714 3.84966C33.3271 2.34401 31.4756 1.3859 29.47 1.15808ZM29.575 15.1751L28.554 14.1541L27.531 15.1741C26.1526 14.934 24.903 14.2155 24.0021 13.1449C23.1013 12.0743 22.6069 10.7203 22.606 9.32108C22.6067 7.92185 23.101 6.56772 24.0019 5.49709C24.9028 4.42645 26.1525 3.70795 27.531 3.46808L28.554 4.48808L29.574 3.46808C30.9525 3.70771 32.2023 4.42598 33.1034 5.49642C34.0045 6.56687 34.499 7.92088 34.5 9.32008C34.4993 10.7194 34.0051 12.0737 33.1042 13.1445C32.2033 14.2153 30.9536 14.934 29.575 15.1741V15.1751ZM47.637 7.94408L42.217 1.19408H40.007V17.6291H42.341V4.84008L42.344 4.84308L42.345 2.24108L47.605 8.84908V11.3341L52.86 4.84008V17.6281H55.207V1.19408H53.023L47.637 7.94408ZM104.897 3.37608C105.457 3.37608 106.023 3.43408 106.589 3.53908L107.541 4.48908L109.665 2.36608L107.54 0.24208L106.446 1.33508C105.873 1.24508 105.316 1.19408 104.781 1.19408C102.339 1.19408 100.285 1.99108 98.621 3.58308C96.955 5.17608 96.123 7.14008 96.123 9.47508C96.1142 10.9145 96.4905 12.3301 97.213 13.5751C97.9166 14.8144 98.9403 15.8419 100.177 16.5501C101.425 17.2691 102.945 17.6291 104.736 17.6291C105.271 17.6291 105.79 17.5991 106.294 17.5451L107.239 15.3551L107.225 15.2181C106.457 15.4149 105.667 15.515 104.874 15.5161C103.014 15.5161 101.486 14.9501 100.291 13.8161C99.096 12.6831 98.499 11.2361 98.499 9.47508C98.499 7.72908 99.106 6.27508 100.32 5.11708C101.534 3.95608 103.059 3.37608 104.897 3.37608ZM90.87 2.13808L92.767 4.03508L91.5 5.30208L91.85 5.65208V9.22608L91.15 9.92508L91.85 10.6231V17.6291L94.154 15.3721V10.6221L94.852 9.92508L94.154 9.22508V5.65008L94.5 5.30308L93.232 4.03608L95.122 2.14808V2.13008L93 0.00708008L90.869 2.13708L90.87 2.13808ZM86.15 3.47408C85.9964 3.31568 85.8352 3.16483 85.667 3.02208C85.613 2.97508 85.554 2.93408 85.499 2.89008C85.388 2.79929 85.2743 2.71191 85.158 2.62808C85.088 2.57808 85.017 2.53508 84.946 2.48808C84.839 2.42008 84.734 2.35108 84.626 2.28808C84.549 2.24408 84.47 2.20308 84.392 2.16108C84.287 2.10608 84.184 2.05008 84.078 1.99908C83.9953 1.96064 83.912 1.92364 83.828 1.88808C83.5411 1.75971 83.2465 1.64916 82.946 1.55708C82.756 1.49741 82.5642 1.44338 82.371 1.39508L82.1 1.33008C82.06 1.32008 82.02 1.31008 81.98 1.30208V1.30608C80.27 0.94508 78.59 0.99608 77.436 0.99608C77.212 0.99608 76.986 1.00008 76.764 1.00308V1.00208L76.522 1.00708H72.993C72.6777 1.00031 72.3624 0.996972 72.047 0.99708C71.801 0.99708 71.709 1.03608 71.701 1.07708C71.748 1.07708 71.781 1.08008 71.826 1.08008C71.977 1.08008 72.126 1.08308 72.256 1.08908C72.31 1.09208 72.356 1.09908 72.407 1.10308C72.511 1.11008 72.617 1.11708 72.71 1.13008C72.772 1.13908 72.826 1.15608 72.885 1.16808C72.961 1.18408 73.039 1.19708 73.112 1.21808C73.188 1.24208 73.263 1.27708 73.338 1.30808C73.392 1.33008 73.444 1.34508 73.497 1.37008C73.8024 1.52192 74.0912 1.70489 74.359 1.91608C74.412 1.96008 74.463 2.00208 74.504 2.04008V16.3961C74.2863 16.6094 74.0497 16.8026 73.797 16.9731C73.6465 17.0725 73.4872 17.1578 73.321 17.2281C73.2406 17.262 73.1568 17.2871 73.071 17.3031C73.042 17.3091 73.007 17.3111 72.977 17.3161C72.911 17.3261 72.847 17.3361 72.774 17.3421C72.728 17.3461 72.675 17.3461 72.625 17.3491C72.561 17.3521 72.5 17.3561 72.43 17.3571H72.218L72.035 17.3591H72.034C72.054 17.3871 72.127 17.6191 72.374 17.6191H76.31C77.244 17.6851 78.394 17.6191 79.328 17.6191C79.738 17.6191 80.121 17.5981 80.489 17.5641L80.524 17.5611C83.452 17.2771 85.084 15.9871 85.911 15.1211C87.059 13.9131 88.114 11.9661 88.236 9.45608H88.247C88.255 9.30408 88.258 9.15008 88.258 8.99408C88.258 6.40808 87.238 4.60408 86.15 3.47408ZM78.892 15.3501C78.1618 15.3495 77.4351 15.2492 76.732 15.0521V16.6281L76.712 16.6221C76.6418 16.6026 76.5721 16.5813 76.503 16.5581L76.441 16.5371C76.2908 16.4804 76.147 16.408 76.012 16.3211C75.8912 16.2358 75.7854 16.1311 75.699 16.0111C75.68 15.9851 75.666 15.9371 75.649 15.8911C75.641 15.8661 75.629 15.8461 75.621 15.8151C75.6061 15.7577 75.5938 15.6996 75.584 15.6411C75.577 15.6101 75.571 15.5841 75.565 15.5501C75.5513 15.4634 75.5397 15.3763 75.53 15.2891C75.528 15.2681 75.524 15.2491 75.523 15.2291C75.4939 14.9401 75.4732 14.6503 75.461 14.3601C75.439 13.9481 75.417 11.9491 75.417 9.64508V6.95008L75.418 6.02008C75.423 5.06708 75.429 4.05808 75.435 3.27808L75.439 2.23508C75.4375 2.18722 75.4429 2.1394 75.455 2.09308C75.475 2.01208 75.53 1.96608 75.679 1.89708L75.699 1.88708C75.831 1.82208 76.315 1.76908 76.732 1.74708V3.75108C77.4352 3.55429 78.1618 3.45437 78.892 3.45408C82.737 3.45408 85.852 6.11708 85.852 9.40108C85.852 12.6861 82.737 15.3491 78.892 15.3491V15.3501ZM64.999 1.18508H64.155L63.655 2.36008L63.133 1.18508H60.418L62.333 5.46508L57.15 17.6501H57.877L62.747 6.39008L67.782 17.6501H70.446L64.078 3.31208L64.999 1.18508Z" fill="white"/>
<path d="M39.401 21.282L39.691 21.355L40.026 21.282C40.2 21.505 40.288 21.669 40.288 21.776C40.288 22.036 39.9 22.828 39.124 24.146C39.144 24.273 39.197 24.336 39.284 24.336H40.23C40.423 24.249 42.082 24.084 45.204 23.841L46.12 23.71L46.411 23.637C46.751 23.686 47.046 23.71 47.298 23.71C47.376 23.633 47.759 23.565 48.448 23.507C48.651 23.555 48.845 23.579 49.029 23.579H49.262C49.3437 23.583 49.4247 23.5629 49.495 23.521L49.596 23.579C50.033 23.483 50.328 23.434 50.484 23.434C50.697 23.434 50.93 23.483 51.182 23.579C51.3202 23.4878 51.4814 23.4375 51.647 23.434H52.347C52.428 23.4373 52.5082 23.4172 52.578 23.376C52.6484 23.4176 52.7293 23.4377 52.811 23.434H53.218C53.383 23.434 53.538 23.414 53.684 23.376C53.829 23.414 53.984 23.434 54.149 23.434C53.606 23.492 53.921 23.521 55.094 23.521C55.085 23.511 55.124 23.507 55.211 23.507C55.337 23.42 55.448 23.376 55.545 23.376C56.107 23.414 56.432 23.434 56.52 23.434V23.391L56.942 23.507L58.862 23.376L59.21 23.434L59.937 23.303L59.997 23.449L60.723 23.376H61.48C61.547 23.376 61.581 23.4 61.581 23.449C61.562 23.449 61.552 23.425 61.552 23.376L62.178 23.303C62.516 23.352 62.774 23.376 62.948 23.376V23.594L62.57 23.376H62.934C63.079 23.376 63.249 23.352 63.444 23.303L63.559 23.376L64.447 23.231L64.723 23.376C64.7964 23.3709 64.867 23.3457 64.927 23.303C65.004 23.303 65.043 23.327 65.043 23.376C65.3468 23.3356 65.6526 23.3112 65.959 23.303H67.123L67.473 23.231C67.559 23.269 67.603 23.318 67.603 23.376C67.709 23.376 67.879 23.332 68.113 23.245L68.403 23.375C68.48 23.327 68.557 23.352 68.635 23.449H68.65V23.637H68.853C68.893 23.367 68.936 23.231 68.985 23.231H70.352L70.584 23.637H70.875C70.923 23.454 70.948 23.337 70.948 23.289C70.968 23.289 70.978 23.318 70.978 23.376L70.846 23.231C71.059 23.231 71.326 23.367 71.646 23.637C71.762 23.637 71.82 23.565 71.82 23.42H71.646L71.792 23.274L71.966 23.244C71.996 23.554 72.121 23.71 72.344 23.71C72.344 23.439 72.155 23.327 71.777 23.376H72.737L72.65 23.71H72.824C72.97 23.71 73.11 23.643 73.246 23.507C73.353 23.507 73.484 23.579 73.639 23.725L73.814 23.623L73.74 23.449V23.405C73.74 23.434 73.75 23.449 73.77 23.449C73.77 23.399 73.934 23.487 74.264 23.709H74.497C74.497 23.565 74.618 23.454 74.86 23.376C74.9355 23.4185 75.0215 23.4387 75.108 23.434C75.02 23.492 75.059 23.521 75.224 23.521C75.224 23.471 75.292 23.491 75.428 23.579C75.458 23.579 75.539 23.555 75.675 23.507H75.893C75.9232 23.4669 75.9478 23.4228 75.966 23.376H76.228C76.238 23.396 76.242 23.472 76.242 23.608L76.373 23.754C76.276 23.754 76.145 23.696 75.98 23.579V23.492L76.097 23.565C75.69 23.691 75.471 23.754 75.442 23.754H75.152C75.016 23.754 74.836 23.734 74.613 23.696L74.38 23.826C74.1742 23.7836 73.965 23.7595 73.755 23.754H73.682C73.412 23.919 73.275 23.953 73.275 23.854C73.1686 23.7926 73.0488 23.7583 72.926 23.754C72.8 23.851 72.708 23.899 72.65 23.899L72.315 23.812V23.958H71.937V23.826H71.82C71.743 23.924 71.462 23.991 70.977 24.031C70.977 23.981 70.89 23.958 70.715 23.958H70.613C70.235 24.055 69.964 24.104 69.799 24.104L69.377 24.031L69.159 24.161L68.869 24.104C68.771 24.104 68.519 24.147 68.112 24.234C67.568 24.147 67.268 24.054 67.21 23.958H67.11C66.982 24.093 66.895 24.162 66.846 24.162C66.7415 24.0818 66.6146 24.0361 66.483 24.031H66.424C66.347 24.031 66.075 24.141 65.61 24.365L65.508 24.307H64.214C64.068 24.307 63.899 24.327 63.705 24.365C63.6287 24.3247 63.5433 24.3047 63.457 24.307C63.234 24.307 63.123 24.341 63.123 24.407C62.9945 24.3346 62.8483 24.3 62.701 24.307H62.352C62.313 24.307 62.158 24.35 61.887 24.437H61.654C61.567 24.437 61.392 24.394 61.13 24.307L60.316 24.51C60.286 24.51 60.233 24.486 60.156 24.438C58.963 24.525 57.95 24.568 57.116 24.568H56.883C56.738 24.568 56.563 24.593 56.359 24.641L56.083 24.51L54.381 24.64L54.091 24.568C53.945 24.626 53.872 24.67 53.872 24.698L53.335 24.641H52.52C52.297 24.641 52.006 24.69 51.647 24.786C51.5498 24.7912 51.4533 24.766 51.371 24.714L49.378 24.844L49.029 24.772C48.739 24.869 48.544 24.918 48.447 24.918L47.865 24.845C45.355 24.991 42.14 25.275 38.223 25.703C38.253 25.713 38.125 25.945 37.844 26.401C37.844 26.508 37.534 27.163 36.914 28.364C36.177 30.527 35.808 31.666 35.808 31.782C35.808 31.831 35.828 31.899 35.866 31.987C35.75 32.452 35.692 32.927 35.692 33.412V34.022C35.789 34.595 36.113 34.881 36.666 34.881C37.297 34.881 38.47 34.313 40.186 33.179C40.69 32.869 41.136 32.553 41.524 32.234C42.028 31.691 42.61 30.929 43.269 29.95L43.357 30.08C43.2821 30.6308 43.1201 31.1661 42.877 31.666C41.637 33.17 40.758 34.032 40.244 34.255C40.002 34.507 39.634 34.779 39.139 35.07C38.15 35.749 37.306 36.088 36.609 36.088C35.803 35.972 35.216 35.685 34.849 35.23C34.849 35.055 34.752 34.832 34.557 34.56L34.617 34.444V34.299C34.6115 34.1199 34.55 33.9471 34.441 33.805V33.688L34.557 33.484V33.077C34.557 32.912 34.577 32.704 34.617 32.452C34.5857 32.3928 34.5654 32.3284 34.557 32.262C34.674 31.584 34.907 30.792 35.255 29.892C35.313 29.329 35.469 28.898 35.721 28.598C35.837 27.996 36.012 27.546 36.244 27.245C36.516 26.722 36.651 26.382 36.651 26.227C36.5779 26.2219 36.5076 26.1966 36.448 26.154L31.43 27.114C31.091 26.939 30.872 26.744 30.776 26.532L30.834 26.182L30.979 25.862C34.169 25.165 36.385 24.748 37.627 24.612C38.217 23.759 38.514 23.206 38.514 22.954C38.659 22.761 38.926 22.222 39.314 21.34L39.401 21.282ZM70.251 23.405H70.571V23.71L70.411 24.074C70.2759 23.9862 70.1199 23.9358 69.959 23.928C69.959 23.618 70.057 23.443 70.251 23.405ZM73.974 23.449H74.235V23.144H73.975L73.974 23.449ZM75.834 23.783H76.329V23.275H75.834V23.783ZM76.824 23.579H77.086V23.274H76.824V23.579ZM77.318 23.623C77.144 23.593 77.058 23.502 77.058 23.347H77.318V23.623ZM77.609 23.623C77.629 23.623 77.639 23.662 77.639 23.739L78.149 23.608H77.464L77.609 23.623ZM78.569 23.463V23.55C78.589 23.55 78.55 23.599 78.453 23.696H78.424C78.327 23.57 78.375 23.492 78.569 23.463ZM78.861 23.855H79.122V23.55H78.862L78.861 23.855ZM80.736 23.507H80.431V23.477H80.577V23.536L80.607 23.594L80.736 23.507Z" fill="white"/>
<path d="M47.793 29.2659C47.793 29.6739 47.264 30.6769 46.207 32.2769C45.848 33.0429 45.669 33.6539 45.669 34.1099C45.669 34.2749 45.766 34.3569 45.96 34.3569H46.207C47.089 34.0759 48.433 32.9509 50.237 30.9819C50.537 30.9239 50.687 30.7599 50.687 30.4879C50.697 30.4209 50.73 30.3869 50.789 30.3869H50.832C50.882 30.3869 50.929 30.4349 50.978 30.5319V30.6769C50.978 30.8329 50.799 31.1289 50.44 31.5639C50.294 32.0199 49.66 32.7999 48.534 33.9059C47.788 34.5849 47.027 35.0639 46.251 35.3459H46.062C45.286 35.3459 44.772 35.0309 44.52 34.3999C44.52 34.3039 44.505 34.2549 44.476 34.2549C44.506 34.1289 44.54 34.0659 44.578 34.0659L44.52 33.9649V33.6149C44.627 32.9939 45.092 32.1359 45.916 31.0399C45.916 30.9639 46.076 30.7349 46.397 30.3579C46.6 29.9789 46.702 29.7319 46.702 29.6159V29.5569H46.498C45.713 29.9929 45.005 30.2119 44.375 30.2119H44.331C44.292 30.2119 44.026 30.5409 43.531 31.2009C43.443 31.2535 43.3434 31.2834 43.241 31.2879H43.196C43.022 31.2879 42.872 31.1579 42.746 30.8949C42.766 30.7209 42.916 30.5409 43.196 30.3579C43.196 30.2989 43.226 30.2159 43.284 30.1089L42.949 29.7169V29.6589C42.949 29.4749 43.06 29.3099 43.284 29.1639H43.634L44.375 28.9749L44.725 29.2219C45.597 29.0189 46.29 28.8009 46.803 28.5689C46.939 28.5689 47.07 28.5539 47.196 28.5249C47.4 28.5249 47.599 28.7719 47.793 29.2659Z" fill="white"/>
<path d="M50.76 29.979H50.876C50.9741 29.9753 51.0711 30.0011 51.1544 30.0532C51.2377 30.1052 51.3034 30.1811 51.343 30.271V30.445C50.683 31.685 50.353 32.695 50.353 33.47V34.11C50.353 34.41 50.47 34.624 50.703 34.75H51.167C51.681 34.75 52.594 34.168 53.903 33.005C54.018 33.005 54.135 32.889 54.251 32.655C54.31 32.655 54.833 32.112 55.821 31.025C55.88 31.025 55.938 30.91 55.996 30.677C56.229 30.523 56.404 30.445 56.52 30.445H56.578C56.655 30.454 56.695 30.494 56.695 30.561C56.365 31.599 55.705 32.684 54.716 33.82C53.562 34.925 52.573 35.584 51.75 35.797L51.167 35.914C49.81 35.759 49.131 35.099 49.131 33.936C49.083 33.936 49.043 33.82 49.014 33.586C49.306 32.054 49.732 31.026 50.294 30.503L50.761 29.979H50.76ZM53.96 25.209C54.368 25.286 54.58 25.325 54.6 25.325V25.499C54.464 25.936 53.824 26.537 52.68 27.303C52.107 27.652 51.682 27.827 51.4 27.827C51.012 27.777 50.819 27.584 50.819 27.245C50.819 26.954 51.439 26.508 52.68 25.907C52.99 25.674 53.417 25.441 53.96 25.209Z" fill="white"/>
<path d="M61.32 23.7971H61.435C61.765 23.7971 62.027 23.9331 62.221 24.2051V24.2631C61.921 25.2901 61.601 26.0661 61.261 26.5891C61.281 26.9791 60.699 27.8321 59.516 29.1491V29.2091C60.33 29.2091 60.752 29.5571 60.781 30.2561C60.801 30.6721 60.654 31.4101 60.345 32.4661H60.519C61.401 32.1861 62.526 31.4571 63.894 30.2861H64.01C64.087 30.2941 64.126 30.3321 64.126 30.4011C64.146 30.7981 63.632 31.5061 62.586 32.5241C61.926 33.0871 61.232 33.4361 60.506 33.5711C60.2551 33.5329 60.0018 33.5135 59.748 33.5131C59.69 33.5131 59.229 34.0171 58.366 35.0261C57.669 35.3361 57.15 35.4911 56.81 35.4911C55.986 35.2291 55.555 34.6471 55.516 33.7451L55.501 33.4551L56.039 31.1281C56.039 31.0991 55.802 30.9821 55.327 30.7791C55.249 30.6531 55.21 30.5561 55.21 30.4891C55.201 30.4301 55.312 30.3141 55.545 30.1391L55.661 30.1991C56.341 30.1991 56.771 29.9261 56.956 29.3831C56.956 29.2561 57.154 28.9081 57.552 28.3351C58.386 26.8521 59.322 25.5531 60.359 24.4371C60.95 24.0201 61.271 23.8071 61.32 23.7971ZM57.261 31.1281C56.805 32.0781 56.592 32.9511 56.621 33.7451C56.641 34.2501 56.786 34.5021 57.057 34.5021C57.484 34.5021 58.071 34.0951 58.817 33.2821L58.803 33.2221C57.891 32.5731 57.421 31.8941 57.393 31.1861L57.261 31.1281ZM58.439 28.6281V28.6851H58.497C59.137 28.2771 59.86 27.4451 60.664 26.1831C60.858 25.7171 61.024 25.4841 61.159 25.4841L61.144 25.0781H61.086C60.863 25.0781 60.437 25.5421 59.806 26.4731C59.428 26.8731 58.972 27.5901 58.439 28.6281ZM58.614 31.3611C58.634 31.7291 58.861 32.0391 59.297 32.2921H59.472C59.908 31.6521 60.116 31.0521 60.097 30.4881L60.025 30.2561C60.0638 30.1847 60.0789 30.1027 60.068 30.0221L59.894 29.9061H59.777C59.089 29.9061 58.701 30.3521 58.614 31.2461V31.3611Z" fill="white"/>
<path d="M65.756 29.1499C65.998 29.1499 66.265 29.3149 66.556 29.6439C66.556 30.1779 66.425 30.6279 66.163 30.9969C65.213 32.1029 64.433 32.7089 63.821 32.8149L63.167 33.1199V33.3249C63.167 33.7709 63.56 33.9929 64.345 33.9929C64.889 33.9423 65.4243 33.8227 65.938 33.6369C66.466 33.4469 67.205 32.7969 68.156 31.6799C68.34 31.2739 68.65 30.8799 69.086 30.5019H69.305C69.305 30.6389 69.339 30.7499 69.407 30.8369V30.9669C68.407 33.2369 66.919 34.5649 64.942 34.9539C64.7295 34.9569 64.5186 34.9909 64.316 35.0549C63.114 35.0549 62.309 34.4549 61.902 33.2519L61.829 32.3779H62.076C62.193 31.6509 62.823 30.8279 63.966 29.9059C64.704 29.4009 65.3 29.1499 65.756 29.1499ZM63.341 31.9569C64.466 31.5699 65.231 30.9589 65.639 30.1229V30.0649C65.629 30.0269 65.639 30.0069 65.668 30.0069C64.961 30.1539 64.214 30.8029 63.428 31.9569H63.341ZM69.61 30.2269L69.756 30.5169L69.523 30.6339H69.173V30.3139L69.61 30.2269Z" fill="white"/>
</g>
<defs>
<clipPath id="clip0_27_280">
<rect width="108.811" height="37" fill="white" transform="translate(0.493927)"/>
</clipPath>
</defs>
</svg>
