<svg width="15" height="15" viewBox="0 0 15 15" fill="none" xmlns="http://www.w3.org/2000/svg">
<path d="M12.5184 10.1343C11.6403 9.38202 10.7492 8.92631 9.88185 9.6775L9.36397 10.1315C8.98505 10.4611 8.28054 12.001 5.55666 8.8621C2.83334 5.72721 4.45395 5.2391 4.83343 4.91238L5.35415 4.4578C6.21692 3.7049 5.89133 2.7571 5.26907 1.78146L4.89356 1.19051C4.26846 0.217144 3.58777 -0.422107 2.72273 0.329652L2.25533 0.738773C1.87301 1.01777 0.804332 1.92466 0.545104 3.64751C0.233123 5.71471 1.21728 8.08193 3.47206 10.6793C5.72399 13.2778 7.92885 14.583 10.0174 14.5602C11.7532 14.5415 12.8014 13.6085 13.1293 13.2692L13.5984 12.8595C14.4612 12.1084 13.9251 11.3435 13.0465 10.5895L12.5184 10.1343Z" fill="#FFC107"/>
</svg>
