<svg width="14" height="15" viewBox="0 0 14 15" fill="none" xmlns="http://www.w3.org/2000/svg">
<path d="M12.0505 10.1343C11.1709 9.38202 10.2782 8.92631 9.40942 9.6775L8.89063 10.1315C8.51106 10.4611 7.80533 12.001 5.07672 8.8621C2.34868 5.72721 3.97209 5.2391 4.35223 4.91238L4.87386 4.4578C5.73813 3.7049 5.41197 2.7571 4.78863 1.78146L4.41246 1.19051C3.78628 0.217144 3.10441 -0.422107 2.23787 0.329652L1.76966 0.738773C1.38667 1.01777 0.316141 1.92466 0.0564629 3.64751C-0.25606 5.71471 0.729808 8.08193 2.9885 10.6793C5.24434 13.2778 7.45303 14.583 9.54523 14.5602C11.284 14.5415 12.3341 13.6085 12.6625 13.2692L13.1324 12.8595C13.9967 12.1084 13.4597 11.3435 12.5795 10.5895L12.0505 10.1343Z" fill="black"/>
</svg>
