<svg width="14" height="14" viewBox="0 0 14 14" fill="none" xmlns="http://www.w3.org/2000/svg">
<path d="M7 0C3.14009 0 0 3.14003 0 6.99987C0 10.8597 3.14009 14 7 14C10.8599 14 14 10.8597 14 6.99987C14 3.14003 10.8599 0 7 0ZM12.306 9.73435H9.69466C9.81502 9.0207 9.88729 8.2672 9.90992 7.51421H12.9479C12.8798 8.3086 12.6555 9.05851 12.306 9.73435ZM7 12.9711C6.54738 12.9711 5.97594 12.1636 5.5804 10.7628H8.4196C8.02406 12.1638 7.45262 12.9711 7 12.9711ZM5.34509 9.73435C5.2255 9.07651 5.1445 8.33329 5.12006 7.51421H8.87968C8.85525 8.33329 8.77424 9.07625 8.65465 9.73435H5.34509ZM1.05235 7.51421H4.09008C4.11272 8.2672 4.18498 9.0207 4.30534 9.73435H1.69426C1.34476 9.05851 1.1205 8.3086 1.05235 7.51421ZM1.69426 4.26566H4.3056C4.18524 4.9793 4.11297 5.73254 4.09034 6.48553H1.05235C1.1205 5.69114 1.34476 4.94124 1.69426 4.26566ZM7 1.02867C7.45262 1.02867 8.02406 1.83593 8.4196 3.23698H5.5804C5.97594 1.83593 6.54738 1.02867 7 1.02867ZM8.65491 4.26566C8.7745 4.92349 8.8555 5.66645 8.87994 6.48553H5.12006C5.1445 5.66645 5.2255 4.92349 5.34509 4.26566H8.65491ZM9.90992 6.48553C9.88729 5.73254 9.81502 4.9793 9.69466 4.26566H12.306C12.6555 4.94124 12.8798 5.69114 12.9479 6.48553H9.90992ZM11.6322 3.23698H9.47992C9.29116 2.49016 9.04273 1.82075 8.73669 1.28713C9.88703 1.63739 10.8908 2.32609 11.6322 3.23698ZM5.26331 1.28713C4.95727 1.82101 4.70884 2.49042 4.52008 3.23698H2.36779C3.10923 2.32609 4.11297 1.63739 5.26331 1.28713ZM2.36805 10.763H4.52008C4.70884 11.5098 4.95727 12.179 5.26331 12.7129C4.11297 12.3624 3.10923 11.6737 2.36805 10.763ZM8.73669 12.7129C9.04273 12.179 9.29116 11.5096 9.47992 10.763H11.6322C10.8908 11.6739 9.88703 12.3626 8.73669 12.7129Z" fill="black"/>
</svg>
