<svg width="91" height="31" viewBox="0 0 91 31" fill="none" xmlns="http://www.w3.org/2000/svg">
<g clip-path="url(#clip0_0_637)">
<path d="M14.55 0.976075C14.1451 0.976075 13.5381 1.00456 13.1733 1.02132C13.0289 1.02802 12.9245 1.03305 12.8978 1.03305C12.8304 1.03112 12.7631 1.02833 12.6957 1.02467L10.9592 0.976075C10.571 0.976075 10.551 1.03137 10.551 1.0431C10.551 1.06572 10.5936 1.09086 10.7129 1.09086C10.9066 1.09086 11.264 1.09086 11.5311 1.12856C11.6981 1.14867 11.8292 1.19894 11.9402 1.27351V9.67116L4.14258 0.544589V0.506886L4.12505 0.523643L4.10918 0.506886V0.536211L2.14559 2.38364V10.9195L0.709625 12.7963C1.79495 13.0996 2.10635 13.8872 2.14642 14.8398V15.3827L4.14425 13.5059V3.57421L13.9238 14.9102V14.8951L13.9363 14.9102V1.1671H13.9222C13.9719 1.1489 14.0234 1.13598 14.0758 1.12856C14.2394 1.11013 14.5266 1.09086 14.7036 1.09086C14.8088 1.09086 14.8455 1.06572 14.8455 1.0431C14.8455 1.03137 14.8305 0.976075 14.5516 0.976075H14.55ZM11.9402 11.8428L4.14258 2.75648V1.36567L11.9402 10.4378V11.8428ZM23.7685 0.970211L23.0038 0.202751L22.2374 0.970211C18.8103 1.35226 16.1429 4.2671 16.1429 7.80948C16.1432 9.50209 16.7649 11.1353 17.8891 12.397C19.0133 13.6588 20.5613 14.4607 22.2374 14.6496L23.0038 15.417L23.7685 14.6496C25.4429 14.4587 26.9886 13.656 28.1109 12.3945C29.2333 11.133 29.8536 9.50103 29.8536 7.8099C29.8536 6.11877 29.2333 4.48681 28.1109 3.22532C26.9886 1.96383 25.4429 1.16108 23.7685 0.970211ZM23.8562 12.7142L23.0038 11.8588L22.1497 12.7133C20.9989 12.5122 19.9557 11.9102 19.2036 11.0132C18.4515 10.1162 18.0388 8.98176 18.038 7.80948C18.0386 6.63715 18.4513 5.50261 19.2034 4.6056C19.9555 3.70858 20.9989 3.10659 22.1497 2.90562L23.0038 3.76021L23.8553 2.90562C25.0062 3.10639 26.0496 3.70818 26.8019 4.60504C27.5542 5.5019 27.9671 6.63634 27.9679 7.80864C27.9673 8.98107 27.5547 10.1157 26.8026 11.0129C26.0505 11.91 25.0071 12.5122 23.8562 12.7133V12.7142ZM38.9355 6.65578L34.4105 1.00037H32.5655V14.7702H34.514V4.05513L34.5165 4.05764L34.5174 1.87759L38.9087 7.41402V9.49605L43.296 4.05513V14.7694H45.2554V1.00037H43.432L38.9355 6.65578ZM86.7397 2.82853C87.2072 2.82853 87.6797 2.87713 88.1523 2.9651L88.9471 3.76105L90.7203 1.98232L88.9462 0.202751L88.0329 1.11851C87.5545 1.0431 87.0895 1.00037 86.6428 1.00037C84.6041 1.00037 82.8893 1.66813 81.5001 3.00197C80.1092 4.33664 79.4146 5.98216 79.4146 7.93851C79.4072 9.14451 79.7214 10.3305 80.3246 11.3736C80.912 12.412 81.7666 13.2729 82.7991 13.8662C83.841 14.4686 85.11 14.7702 86.6053 14.7702C87.0519 14.7702 87.4852 14.7451 87.906 14.6999L88.6949 12.865L88.6832 12.7502C88.0419 12.9151 87.3825 12.999 86.7205 12.9999C85.1676 12.9999 83.892 12.5257 82.8943 11.5756C81.8966 10.6263 81.3982 9.41394 81.3982 7.93851C81.3982 6.47564 81.905 5.25743 82.9185 4.28721C83.932 3.31448 85.2052 2.82853 86.7397 2.82853ZM75.0291 1.79129L76.6128 3.38067L75.555 4.44221L75.8472 4.73545V7.72989L75.2628 8.31553L75.8472 8.90034V14.7702L77.7708 12.8792V8.89951L78.3535 8.31553L77.7708 7.72905V4.73378L78.0596 4.44305L77.001 3.38151L78.5789 1.79967V1.78459L76.8073 0.00585938L75.0282 1.79045L75.0291 1.79129ZM71.0885 2.91064C70.9603 2.77793 70.8257 2.65154 70.6853 2.53194C70.6402 2.49256 70.5909 2.45821 70.545 2.42135C70.4524 2.34527 70.3574 2.27207 70.2603 2.20183C70.2019 2.15994 70.1426 2.12391 70.0833 2.08453C69.994 2.02756 69.9063 1.96975 69.8162 1.91697C69.7519 1.8801 69.686 1.84575 69.6208 1.81056C69.5332 1.76448 69.4472 1.71756 69.3587 1.67483C69.2896 1.64263 69.2201 1.61162 69.15 1.58183C68.9104 1.47428 68.6645 1.38166 68.4136 1.30451C68.255 1.25451 68.0949 1.20925 67.9336 1.16878L67.7073 1.11432C67.6739 1.10594 67.6405 1.09756 67.6071 1.09086V1.09421C66.1795 0.791751 64.777 0.834481 63.8135 0.834481C63.6265 0.834481 63.4378 0.837832 63.2525 0.840346V0.839508L63.0505 0.843697H60.1042C59.841 0.838021 59.5777 0.835228 59.3145 0.835319C59.1091 0.835319 59.0323 0.867994 59.0256 0.902346C59.0648 0.902346 59.0924 0.904859 59.1299 0.904859C59.256 0.904859 59.3804 0.907373 59.4889 0.9124C59.534 0.914913 59.5724 0.920778 59.615 0.92413C59.7018 0.929994 59.7903 0.935859 59.868 0.946751C59.9197 0.954292 59.9648 0.968535 60.0141 0.978589C60.0775 0.991994 60.1426 1.00289 60.2036 1.02048C60.267 1.04059 60.3296 1.06991 60.3923 1.09589C60.4373 1.11432 60.4808 1.12689 60.525 1.14783C60.7799 1.27505 61.0211 1.42835 61.2447 1.60529C61.2889 1.64216 61.3315 1.67735 61.3657 1.70918V13.7372C61.184 13.9159 60.9864 14.0778 60.7755 14.2206C60.6498 14.3039 60.5168 14.3754 60.3781 14.4343C60.3109 14.4627 60.241 14.4837 60.1694 14.4971C60.1451 14.5021 60.1159 14.5038 60.0909 14.508C60.0358 14.5164 59.9823 14.5247 59.9214 14.5298C59.883 14.5331 59.8387 14.5331 59.797 14.5356C59.7436 14.5382 59.6926 14.5415 59.6342 14.5423H59.4572L59.3044 14.544H59.3036C59.3203 14.5675 59.3812 14.7619 59.5875 14.7619H62.8735C63.6532 14.8172 64.6133 14.7619 65.3931 14.7619C65.7354 14.7619 66.0551 14.7443 66.3624 14.7158L66.3916 14.7133C68.8361 14.4753 70.1986 13.3945 70.889 12.6689C71.8474 11.6568 72.7282 10.0256 72.83 7.92259H72.8392C72.8459 7.79524 72.8484 7.66621 72.8484 7.53551C72.8484 5.36886 71.9968 3.8574 71.0885 2.91064ZM65.0291 12.8608C64.4195 12.8603 63.8128 12.7763 63.2258 12.6111V13.9316L63.2091 13.9265C63.1505 13.9102 63.0923 13.8924 63.0346 13.8729L62.9828 13.8553C62.8574 13.8078 62.7374 13.7472 62.6247 13.6743C62.5238 13.6029 62.4355 13.5151 62.3634 13.4146C62.3475 13.3928 62.3358 13.3526 62.3216 13.3141C62.315 13.2931 62.3049 13.2764 62.2983 13.2504C62.2858 13.2023 62.2755 13.1536 62.2674 13.1046C62.2615 13.0786 62.2565 13.0569 62.2515 13.0284C62.2401 12.9557 62.2303 12.8828 62.2223 12.8097C62.2206 12.7921 62.2173 12.7762 62.2164 12.7594C62.1921 12.5173 62.1748 12.2745 62.1647 12.0313C62.1463 11.6862 62.1279 10.0113 62.1279 8.08094V5.82297L62.1288 5.04378C62.1329 4.24532 62.138 3.39994 62.143 2.74643L62.1463 1.87256C62.1451 1.83247 62.1496 1.7924 62.1597 1.75359C62.1764 1.68572 62.2223 1.64718 62.3467 1.58937L62.3634 1.58099C62.4736 1.52653 62.8776 1.48213 63.2258 1.4637V3.14272C63.8128 2.97784 64.4195 2.89413 65.0291 2.89389C68.2391 2.89389 70.8397 5.12505 70.8397 7.87651C70.8397 10.6288 68.2391 12.86 65.0291 12.86V12.8608ZM53.4303 0.992832H52.7257L52.3083 1.97729L51.8725 0.992832H49.6058L51.2046 4.57878L46.8775 14.7878H47.4845L51.5502 5.35378L55.7538 14.7878H57.9778L52.6614 2.77491L53.4303 0.992832Z" fill="black"/>
<path d="M32.0595 17.8308L32.3017 17.892L32.5813 17.8308C32.7266 18.0176 32.8001 18.1551 32.8001 18.2447C32.8001 18.4625 32.4761 19.1261 31.8283 20.2304C31.845 20.3368 31.8892 20.3896 31.9619 20.3896H32.7516C32.9128 20.3167 34.2978 20.1784 36.9043 19.9748L37.669 19.8651L37.9119 19.8039C38.1958 19.845 38.4421 19.8651 38.6525 19.8651C38.7176 19.8006 39.0373 19.7436 39.6125 19.695C39.782 19.7352 39.944 19.7553 40.0976 19.7553H40.2921C40.3603 19.7587 40.428 19.7418 40.4866 19.7067L40.571 19.7553C40.9358 19.6749 41.1821 19.6338 41.3123 19.6338C41.4902 19.6338 41.6847 19.6749 41.8951 19.7553C42.0105 19.6789 42.145 19.6368 42.2833 19.6338H42.8677C42.9353 19.6367 43.0023 19.6198 43.0605 19.5852C43.1193 19.6201 43.1869 19.637 43.2551 19.6338H43.5948C43.7326 19.6338 43.862 19.6171 43.9839 19.5852C44.1049 19.6171 44.2343 19.6338 44.3721 19.6338C43.9188 19.6824 44.1817 19.7067 45.161 19.7067C45.1535 19.6984 45.1861 19.695 45.2587 19.695C45.3639 19.6221 45.4566 19.5852 45.5376 19.5852C46.0068 19.6171 46.2781 19.6338 46.3516 19.6338V19.5978L46.7039 19.695L48.3068 19.5852L48.5973 19.6338L49.2043 19.5241L49.2544 19.6464L49.8605 19.5852H50.4925C50.5484 19.5852 50.5768 19.6054 50.5768 19.6464C50.5609 19.6464 50.5526 19.6263 50.5526 19.5852L51.0752 19.5241C51.3574 19.5651 51.5728 19.5852 51.7181 19.5852V19.7679L51.4025 19.5852H51.7064C51.8274 19.5852 51.9693 19.5651 52.1321 19.5241L52.2281 19.5852L52.9695 19.4638L53.1999 19.5852C53.2612 19.581 53.3202 19.5598 53.3702 19.5241C53.4345 19.5241 53.4671 19.5442 53.4671 19.5852C53.7208 19.5514 53.976 19.531 54.2318 19.5241H55.2036L55.4958 19.4638C55.5676 19.4956 55.6043 19.5366 55.6043 19.5852C55.6928 19.5852 55.8348 19.5484 56.0301 19.4755L56.2722 19.5844C56.3365 19.5442 56.4008 19.5651 56.4659 19.6464H56.4784V19.8039H56.6479C56.6813 19.5777 56.7172 19.4638 56.7581 19.4638H57.8994L58.0931 19.8039H58.336C58.3761 19.6506 58.3969 19.5526 58.3969 19.5124C58.4136 19.5124 58.422 19.5366 58.422 19.5852L58.3118 19.4638C58.4896 19.4638 58.7125 19.5777 58.9797 19.8039C59.0765 19.8039 59.1249 19.7436 59.1249 19.6221H58.9797L59.1016 19.4998L59.2468 19.4746C59.2719 19.7344 59.3762 19.8651 59.5624 19.8651C59.5624 19.638 59.4046 19.5442 59.0891 19.5852H59.8905L59.8179 19.8651H59.9631C60.085 19.8651 60.2019 19.8089 60.3155 19.695C60.4048 19.695 60.5142 19.7553 60.6436 19.8776L60.7897 19.7922L60.7279 19.6464V19.6095C60.7279 19.6338 60.7362 19.6464 60.7529 19.6464C60.7529 19.6045 60.8898 19.6782 61.1654 19.8642H61.3599C61.3599 19.7436 61.4609 19.6506 61.6629 19.5852C61.7259 19.6209 61.7978 19.6378 61.87 19.6338C61.7965 19.6824 61.8291 19.7067 61.9668 19.7067C61.9668 19.6648 62.0236 19.6816 62.1371 19.7553C62.1622 19.7553 62.2298 19.7352 62.3433 19.695H62.5253C62.5506 19.6614 62.5711 19.6244 62.5863 19.5852H62.805C62.8134 19.602 62.8167 19.6657 62.8167 19.7796L62.9261 19.9019C62.8451 19.9019 62.7357 19.8534 62.598 19.7553V19.6824L62.6957 19.7436C62.3559 19.8492 62.173 19.9019 62.1488 19.9019H61.9067C61.7932 19.9019 61.6429 19.8852 61.4567 19.8534L61.2622 19.9623C61.0904 19.9267 60.9158 19.9065 60.7404 19.9019H60.6795C60.454 20.0402 60.3397 20.0687 60.3397 19.9857C60.2508 19.9343 60.1508 19.9056 60.0483 19.9019C59.9431 19.9832 59.8663 20.0234 59.8179 20.0234L59.5382 19.9505V20.0729H59.2226V19.9623H59.1249C59.0607 20.0444 58.8261 20.1005 58.4212 20.134C58.4212 20.0921 58.3485 20.0729 58.2024 20.0729H58.1173C57.8017 20.1541 57.5754 20.1952 57.4377 20.1952L57.0854 20.134L56.9034 20.2429L56.6613 20.1952C56.5795 20.1952 56.3691 20.2312 56.0293 20.3041C55.5751 20.2312 55.3247 20.1533 55.2762 20.0729H55.1927C55.0859 20.186 55.0133 20.2438 54.9723 20.2438C54.8851 20.1766 54.7792 20.1383 54.6693 20.134H54.62C54.5557 20.134 54.3287 20.2262 53.9405 20.4139L53.8553 20.3653H52.775C52.6531 20.3653 52.512 20.382 52.35 20.4139C52.2863 20.3801 52.215 20.3633 52.143 20.3653C51.9568 20.3653 51.8642 20.3938 51.8642 20.4491C51.7569 20.3884 51.6348 20.3594 51.5118 20.3653H51.2205C51.1879 20.3653 51.0585 20.4013 50.8323 20.4742H50.6377C50.5651 20.4742 50.419 20.4382 50.2003 20.3653L49.5207 20.5354C49.4956 20.5354 49.4514 20.5152 49.3871 20.475C48.3911 20.5479 47.5454 20.5839 46.8491 20.5839H46.6546C46.5336 20.5839 46.3875 20.6049 46.2171 20.6451L45.9867 20.5354L44.5658 20.6443L44.3237 20.5839C44.2018 20.6325 44.1408 20.6694 44.1408 20.6929L43.6925 20.6451H43.0121C42.8259 20.6451 42.583 20.6862 42.2833 20.7666C42.2021 20.7709 42.1216 20.7498 42.0528 20.7063L40.389 20.8152L40.0976 20.7549C39.8555 20.8361 39.6927 20.8772 39.6117 20.8772L39.1258 20.816C37.0303 20.9384 34.3462 21.1763 31.0761 21.5349C31.1011 21.5433 30.9943 21.7376 30.7597 22.1197C30.7597 22.2094 30.5009 22.7581 29.9832 23.7644C29.3679 25.5766 29.0599 26.5309 29.0599 26.6281C29.0599 26.6692 29.0766 26.7261 29.1083 26.7999C29.0115 27.1895 28.963 27.5874 28.963 27.9938V28.5049C29.044 28.9849 29.3145 29.2246 29.7762 29.2246C30.303 29.2246 31.2823 28.7487 32.7149 27.7986C33.1357 27.5388 33.508 27.2741 33.832 27.0068C34.2527 26.5519 34.7386 25.9134 35.2888 25.0932L35.3623 25.2021C35.2997 25.6636 35.1645 26.1121 34.9615 26.5309C33.9263 27.791 33.1925 28.5132 32.7633 28.7001C32.5613 28.9112 32.2541 29.1391 31.8408 29.3829C31.0151 29.9518 30.3105 30.2358 29.7286 30.2358C29.0557 30.1386 28.5656 29.8982 28.2593 29.517C28.2593 29.3704 28.1783 29.1835 28.0155 28.9556L28.0656 28.8584V28.7369C28.061 28.5869 28.0096 28.4422 27.9186 28.3231V28.225L28.0155 28.0541V27.7131C28.0155 27.5749 28.0322 27.4006 28.0656 27.1895C28.0394 27.1399 28.0224 27.0859 28.0155 27.0303C28.1131 26.4622 28.3077 25.7986 28.5982 25.0446C28.6466 24.5729 28.7769 24.2118 28.9873 23.9604C29.0841 23.4561 29.2302 23.079 29.4239 22.8268C29.651 22.3886 29.7637 22.1038 29.7637 21.9739C29.7026 21.9697 29.644 21.9485 29.5942 21.9128L25.4049 22.7171C25.1218 22.5705 24.939 22.4071 24.8589 22.2295L24.9073 21.9362L25.0283 21.6681C27.6915 21.0841 29.5416 20.7348 30.5785 20.6208C31.0711 19.9061 31.319 19.4428 31.319 19.2317C31.4401 19.07 31.663 18.6184 31.9869 17.8794L32.0595 17.8308ZM57.815 19.6095H58.0822V19.8651L57.9486 20.1701C57.8359 20.0965 57.7056 20.0543 57.5713 20.0477C57.5713 19.788 57.6531 19.6414 57.815 19.6095ZM60.9232 19.6464H61.1411V19.3909H60.9241L60.9232 19.6464ZM62.4761 19.9262H62.8893V19.5006H62.4761V19.9262ZM63.3026 19.7553H63.5213V19.4998H63.3026V19.7553ZM63.715 19.7922C63.5698 19.7671 63.498 19.6908 63.498 19.5609H63.715V19.7922ZM63.958 19.7922C63.9747 19.7922 63.983 19.8249 63.983 19.8894L64.4088 19.7796H63.8369L63.958 19.7922ZM64.7594 19.6581V19.731C64.7761 19.731 64.7436 19.7721 64.6626 19.8534H64.6384C64.5574 19.7478 64.5975 19.6824 64.7594 19.6581ZM65.0032 19.9866H65.2211V19.731H65.004L65.0032 19.9866ZM66.5686 19.695H66.3139V19.6699H66.4358V19.7193L66.4609 19.7679L66.5686 19.695Z" fill="#FFC107"/>
<path d="M39.0657 24.5201C39.0657 24.862 38.6241 25.7023 37.7416 27.0429C37.4419 27.6846 37.2925 28.1966 37.2925 28.5786C37.2925 28.7169 37.3735 28.7856 37.5354 28.7856H37.7416C38.478 28.5501 39.6 27.6076 41.1061 25.9579C41.3566 25.9093 41.4818 25.7719 41.4818 25.544C41.4902 25.4878 41.5177 25.4593 41.567 25.4593H41.6029C41.6446 25.4593 41.6839 25.4996 41.7248 25.5808V25.7023C41.7248 25.833 41.5753 26.081 41.2756 26.4455C41.1537 26.8275 40.6244 27.481 39.6844 28.4077C39.0616 28.9766 38.4262 29.3779 37.7784 29.6142H37.6206C36.9727 29.6142 36.5436 29.3503 36.3332 28.8216C36.3332 28.7412 36.3207 28.7001 36.2965 28.7001C36.3215 28.5945 36.3499 28.5418 36.3816 28.5418L36.3332 28.4571V28.1639C36.4226 27.6436 36.8108 26.9247 37.4987 26.0065C37.4987 25.9428 37.6323 25.7509 37.9003 25.435C38.0697 25.1175 38.1549 24.9106 38.1549 24.8134V24.7639H37.9846C37.3292 25.1292 36.7381 25.3127 36.2122 25.3127H36.1754C36.1429 25.3127 35.9208 25.5884 35.5075 26.1413C35.4341 26.1854 35.3509 26.2105 35.2654 26.2142H35.2279C35.0826 26.2142 34.9574 26.1053 34.8522 25.885C34.8689 25.7392 34.9941 25.5884 35.2279 25.435C35.2279 25.3856 35.2529 25.3161 35.3013 25.2264L35.0217 24.898V24.8494C35.0217 24.6952 35.1143 24.557 35.3013 24.4347H35.5935L36.2122 24.2763L36.5044 24.4833C37.2324 24.3132 37.8109 24.1305 38.2392 23.9362C38.3528 23.9362 38.4621 23.9236 38.5673 23.8993C38.7376 23.8993 38.9038 24.1062 39.0657 24.5201Z" fill="#FFC107"/>
<path d="M41.5428 25.1176H41.6396C41.7215 25.1145 41.8025 25.1361 41.872 25.1797C41.9415 25.2234 41.9964 25.2869 42.0295 25.3622V25.508C41.4785 26.5469 41.203 27.3931 41.203 28.0425V28.5787C41.203 28.83 41.3006 29.0093 41.4952 29.1149H41.8825C42.3117 29.1149 43.0739 28.6273 44.1667 27.6529C44.2627 27.6529 44.3604 27.5557 44.4573 27.3596C44.5065 27.3596 44.9431 26.9047 45.768 25.994C45.8172 25.994 45.8657 25.8976 45.9141 25.7024C46.1086 25.5734 46.2547 25.508 46.3516 25.508H46.4C46.4643 25.5156 46.4977 25.5491 46.4977 25.6052C46.2222 26.4749 45.6711 27.3839 44.8455 28.3357C43.882 29.2615 43.0564 29.8137 42.3693 29.9921L41.8825 30.0901C40.7496 29.9603 40.1828 29.4073 40.1828 28.4329C40.1427 28.4329 40.1093 28.3357 40.0851 28.1397C40.3289 26.8561 40.6845 25.9948 41.1537 25.5566L41.5436 25.1176H41.5428ZM44.2143 21.1211C44.5549 21.1856 44.7319 21.2183 44.7486 21.2183V21.3641C44.6351 21.7302 44.1008 22.2337 43.1457 22.8755C42.6673 23.1679 42.3125 23.3146 42.0771 23.3146C41.7531 23.2727 41.592 23.111 41.592 22.8269C41.592 22.5831 42.1096 22.2094 43.1457 21.7059C43.4045 21.5107 43.761 21.3155 44.2143 21.1211Z" fill="#FFC107"/>
<path d="M50.3589 19.938H50.4549C50.7304 19.938 50.9492 20.0519 51.1111 20.2798V20.3284C50.8607 21.1889 50.5935 21.839 50.3097 22.2772C50.3264 22.604 49.8405 23.3187 48.8528 24.4221V24.4724C49.5324 24.4724 49.8847 24.7639 49.9089 25.3496C49.9256 25.6981 49.8029 26.3164 49.5449 27.2012H49.6902C50.4265 26.9666 51.3658 26.3558 52.5078 25.3747H52.6047C52.669 25.3814 52.7015 25.4133 52.7015 25.4711C52.7182 25.8037 52.2891 26.3969 51.4158 27.2498C50.8648 27.7215 50.2854 28.0139 49.6793 28.127C49.4699 28.095 49.2584 28.0788 49.0465 28.0784C48.9981 28.0784 48.6132 28.5007 47.8927 29.3461C47.3108 29.6058 46.8775 29.7357 46.5937 29.7357C45.9058 29.5162 45.5459 29.0285 45.5134 28.2728L45.5008 28.0298L45.95 26.0802C45.95 26.0559 45.7521 25.9579 45.3556 25.7878C45.2905 25.6822 45.2579 25.6009 45.2579 25.5448C45.2504 25.4954 45.3431 25.3982 45.5376 25.2516L45.6344 25.3018C46.2021 25.3018 46.5611 25.0731 46.7156 24.6181C46.7156 24.5117 46.8809 24.2202 47.2131 23.7401C47.9094 22.4976 48.6909 21.4092 49.5566 20.4742C50.05 20.1248 50.318 19.9464 50.3589 19.938ZM46.9702 26.0802C46.5895 26.8761 46.4117 27.6076 46.4359 28.2728C46.4526 28.6959 46.5736 28.907 46.7999 28.907C47.1564 28.907 47.6464 28.566 48.2692 27.8849L48.2576 27.8346C47.4962 27.2909 47.1038 26.722 47.0804 26.1288L46.9702 26.0802ZM47.9537 23.9856V24.0333H48.0021C48.5364 23.6915 49.14 22.9944 49.8112 21.9371C49.9732 21.5466 50.1118 21.3514 50.2245 21.3514L50.212 21.0113H50.1635C49.9774 21.0113 49.6217 21.4 49.0949 22.18C48.7793 22.5152 48.3987 23.1159 47.9537 23.9856ZM48.0998 26.2754C48.1165 26.5837 48.306 26.8434 48.67 27.0554H48.8161C49.1801 26.5192 49.3537 26.0165 49.3379 25.544L49.2778 25.3496C49.3102 25.2897 49.3227 25.221 49.3137 25.1535L49.1684 25.0563H49.0707C48.4963 25.0563 48.1724 25.43 48.0998 26.179V26.2754Z" fill="#FFC107"/>
<path d="M54.0623 24.423C54.2644 24.423 54.4873 24.5612 54.7302 24.8368C54.7302 25.2843 54.6209 25.6613 54.4021 25.9704C53.609 26.8971 52.9578 27.4048 52.4469 27.4936L51.9009 27.7492V27.9209C51.9009 28.2946 52.229 28.4806 52.8844 28.4806C53.3385 28.4382 53.7854 28.338 54.2143 28.1823C54.6551 28.0231 55.2721 27.4786 56.066 26.5427C56.2196 26.2025 56.4784 25.8724 56.8424 25.5557H57.0253C57.0253 25.6705 57.0537 25.7635 57.1104 25.8364V25.9453C56.2756 27.8472 55.0333 28.9598 53.3828 29.2858C53.2054 29.2883 53.0293 29.3168 52.8601 29.3704C51.8566 29.3704 51.1846 28.8677 50.8448 27.8598L50.7838 27.1275H50.9901C51.0877 26.5184 51.6137 25.8288 52.5679 25.0564C53.1841 24.6333 53.6816 24.423 54.0623 24.423ZM52.0462 26.7748C52.9854 26.4505 53.624 25.9386 53.9647 25.2382V25.1896C53.9563 25.1577 53.9647 25.141 53.9889 25.141C53.3986 25.2641 52.775 25.8079 52.1188 26.7748H52.0462ZM57.2799 25.3253L57.4018 25.5683L57.2073 25.6663H56.9151V25.3982L57.2799 25.3253Z" fill="#FFC107"/>
</g>
<defs>
<clipPath id="clip0_0_637">
<rect width="91" height="31" fill="white"/>
</clipPath>
</defs>
</svg>
