<svg width="109" height="37" viewBox="0 0 109 37" fill="none" xmlns="http://www.w3.org/2000/svg">
<g opacity="0.7" clip-path="url(#clip0_19_643)">
<path d="M17.9341 1.16508C17.4491 1.16508 16.7221 1.19908 16.2851 1.21908C16.1121 1.22708 15.9871 1.23308 15.9551 1.23308C15.8744 1.23078 15.7937 1.22744 15.7131 1.22308L13.6331 1.16508C13.1681 1.16508 13.1441 1.23108 13.1441 1.24508C13.1441 1.27208 13.1951 1.30208 13.3381 1.30208C13.5701 1.30208 13.9981 1.30208 14.3181 1.34708C14.5181 1.37108 14.6751 1.43108 14.8081 1.52008V11.5431L5.46808 0.65008V0.60508L5.44708 0.62508L5.42808 0.60508V0.64008L3.07608 2.84508V13.0331L1.35608 15.2731C2.65608 15.6351 3.02908 16.5751 3.07708 17.7121V18.3601L5.47008 16.1201V4.26608L17.1841 17.7961V17.7781L17.1991 17.7961V1.39308H17.1821C17.2416 1.37135 17.3033 1.35593 17.3661 1.34708C17.5621 1.32508 17.9061 1.30208 18.1181 1.30208C18.2441 1.30208 18.2881 1.27208 18.2881 1.24508C18.2881 1.23108 18.2701 1.16508 17.9361 1.16508H17.9341ZM14.8081 14.1351L5.46808 3.29008V1.63008L14.8081 12.4581V14.1351ZM28.9761 1.15808L28.0601 0.24208L27.1421 1.15808C23.0371 1.61408 19.8421 5.09308 19.8421 9.32108C19.8425 11.3413 20.5871 13.2906 21.9337 14.7965C23.2803 16.3025 25.1345 17.2596 27.1421 17.4851L28.0601 18.4011L28.9761 17.4851C30.9816 17.2573 32.8331 16.2991 34.1774 14.7935C35.5217 13.2878 36.2648 11.34 36.2648 9.32158C36.2648 7.30313 35.5217 5.35531 34.1774 3.84966C32.8331 2.34401 30.9816 1.3859 28.9761 1.15808ZM29.0811 15.1751L28.0601 14.1541L27.0371 15.1741C25.6586 14.934 24.4091 14.2155 23.5082 13.1449C22.6074 12.0743 22.113 10.7203 22.1121 9.32108C22.1128 7.92185 22.6071 6.56772 23.508 5.49709C24.4089 4.42645 25.6586 3.70795 27.0371 3.46808L28.0601 4.48808L29.0801 3.46808C30.4586 3.70771 31.7084 4.42598 32.6095 5.49642C33.5105 6.56687 34.0051 7.92088 34.0061 9.32008C34.0054 10.7194 33.5111 12.0737 32.6103 13.1445C31.7094 14.2153 30.4597 14.934 29.0811 15.1741V15.1751ZM47.1431 7.94408L41.7231 1.19408H39.5131V17.6291H41.8471V4.84008L41.8501 4.84308L41.8511 2.24108L47.1111 8.84908V11.3341L52.3661 4.84008V17.6281H54.7131V1.19408H52.5291L47.1431 7.94408ZM104.403 3.37608C104.963 3.37608 105.529 3.43408 106.095 3.53908L107.047 4.48908L109.171 2.36608L107.046 0.24208L105.952 1.33508C105.379 1.24508 104.822 1.19408 104.287 1.19408C101.845 1.19408 99.7911 1.99108 98.1271 3.58308C96.4611 5.17608 95.6291 7.14008 95.6291 9.47508C95.6203 10.9145 95.9966 12.3301 96.7191 13.5751C97.4226 14.8144 98.4463 15.8419 99.6831 16.5501C100.931 17.2691 102.451 17.6291 104.242 17.6291C104.777 17.6291 105.296 17.5991 105.8 17.5451L106.745 15.3551L106.731 15.2181C105.963 15.4149 105.173 15.515 104.38 15.5161C102.52 15.5161 100.992 14.9501 99.7971 13.8161C98.6021 12.6831 98.0051 11.2361 98.0051 9.47508C98.0051 7.72908 98.6121 6.27508 99.8261 5.11708C101.04 3.95608 102.565 3.37608 104.403 3.37608ZM90.3761 2.13808L92.2731 4.03508L91.0061 5.30208L91.3561 5.65208V9.22608L90.6561 9.92508L91.3561 10.6231V17.6291L93.6601 15.3721V10.6221L94.3581 9.92508L93.6601 9.22508V5.65008L94.0061 5.30308L92.7381 4.03608L94.6281 2.14808V2.13008L92.5061 0.00708008L90.3751 2.13708L90.3761 2.13808ZM85.6561 3.47408C85.5025 3.31568 85.3413 3.16483 85.1731 3.02208C85.1191 2.97508 85.0601 2.93408 85.0051 2.89008C84.8941 2.79929 84.7804 2.71191 84.6641 2.62808C84.5941 2.57808 84.5231 2.53508 84.4521 2.48808C84.3451 2.42008 84.2401 2.35108 84.1321 2.28808C84.0551 2.24408 83.9761 2.20308 83.8981 2.16108C83.7931 2.10608 83.6901 2.05008 83.5841 1.99908C83.5014 1.96064 83.418 1.92364 83.3341 1.88808C83.0472 1.75971 82.7526 1.64916 82.4521 1.55708C82.2621 1.49741 82.0703 1.44338 81.8771 1.39508L81.6061 1.33008C81.5661 1.32008 81.5261 1.31008 81.4861 1.30208V1.30608C79.7761 0.94508 78.0961 0.99608 76.9421 0.99608C76.7181 0.99608 76.4921 1.00008 76.2701 1.00308V1.00208L76.0281 1.00708H72.4991C72.1838 1.00031 71.8684 0.996972 71.5531 0.99708C71.3071 0.99708 71.2151 1.03608 71.2071 1.07708C71.2541 1.07708 71.2871 1.08008 71.3321 1.08008C71.4831 1.08008 71.6321 1.08308 71.7621 1.08908C71.8161 1.09208 71.8621 1.09908 71.9131 1.10308C72.0171 1.11008 72.1231 1.11708 72.2161 1.13008C72.2781 1.13908 72.3321 1.15608 72.3911 1.16808C72.4671 1.18408 72.5451 1.19708 72.6181 1.21808C72.6941 1.24208 72.7691 1.27708 72.8441 1.30808C72.8981 1.33008 72.9501 1.34508 73.0031 1.37008C73.3084 1.52192 73.5973 1.70489 73.8651 1.91608C73.9181 1.96008 73.9691 2.00208 74.0101 2.04008V16.3961C73.7924 16.6094 73.5557 16.8026 73.3031 16.9731C73.1526 17.0725 72.9932 17.1578 72.8271 17.2281C72.7467 17.262 72.6629 17.2871 72.5771 17.3031C72.5481 17.3091 72.5131 17.3111 72.4831 17.3161C72.4171 17.3261 72.3531 17.3361 72.2801 17.3421C72.2341 17.3461 72.1811 17.3461 72.1311 17.3491C72.0671 17.3521 72.0061 17.3561 71.9361 17.3571H71.7241L71.5411 17.3591H71.5401C71.5601 17.3871 71.6331 17.6191 71.8801 17.6191H75.8161C76.7501 17.6851 77.9001 17.6191 78.8341 17.6191C79.2441 17.6191 79.6271 17.5981 79.9951 17.5641L80.0301 17.5611C82.9581 17.2771 84.5901 15.9871 85.4171 15.1211C86.5651 13.9131 87.6201 11.9661 87.7421 9.45608H87.7531C87.7611 9.30408 87.7641 9.15008 87.7641 8.99408C87.7641 6.40808 86.7441 4.60408 85.6561 3.47408ZM78.3981 15.3501C77.6679 15.3495 76.9412 15.2492 76.2381 15.0521V16.6281L76.2181 16.6221C76.1478 16.6026 76.0782 16.5813 76.0091 16.5581L75.9471 16.5371C75.7969 16.4804 75.6531 16.408 75.5181 16.3211C75.3973 16.2358 75.2915 16.1311 75.2051 16.0111C75.1861 15.9851 75.1721 15.9371 75.1551 15.8911C75.1471 15.8661 75.1351 15.8461 75.1271 15.8151C75.1122 15.7577 75.0998 15.6996 75.0901 15.6411C75.0831 15.6101 75.0771 15.5841 75.0711 15.5501C75.0574 15.4634 75.0457 15.3763 75.0361 15.2891C75.0341 15.2681 75.0301 15.2491 75.0291 15.2291C74.9999 14.9401 74.9793 14.6503 74.9671 14.3601C74.9451 13.9481 74.9231 11.9491 74.9231 9.64508V6.95008L74.9241 6.02008C74.9291 5.06708 74.9351 4.05808 74.9411 3.27808L74.9451 2.23508C74.9436 2.18722 74.949 2.1394 74.9611 2.09308C74.9811 2.01208 75.0361 1.96608 75.1851 1.89708L75.2051 1.88708C75.3371 1.82208 75.8211 1.76908 76.2381 1.74708V3.75108C76.9412 3.55429 77.6679 3.45437 78.3981 3.45408C82.2431 3.45408 85.3581 6.11708 85.3581 9.40108C85.3581 12.6861 82.2431 15.3491 78.3981 15.3491V15.3501ZM64.5051 1.18508H63.6611L63.1611 2.36008L62.6391 1.18508H59.9241L61.8391 5.46508L56.6561 17.6501H57.3831L62.2531 6.39008L67.2881 17.6501H69.9521L63.5841 3.31208L64.5051 1.18508Z" fill="white"/>
<path d="M38.9071 21.282L39.1971 21.355L39.5321 21.282C39.7061 21.505 39.7941 21.669 39.7941 21.776C39.7941 22.036 39.4061 22.828 38.6301 24.146C38.6501 24.273 38.7031 24.336 38.7901 24.336H39.7361C39.9291 24.249 41.5881 24.084 44.7101 23.841L45.6261 23.71L45.9171 23.637C46.2571 23.686 46.5521 23.71 46.8041 23.71C46.8821 23.633 47.2651 23.565 47.9541 23.507C48.1571 23.555 48.3511 23.579 48.5351 23.579H48.7681C48.8498 23.583 48.9308 23.5629 49.0011 23.521L49.1021 23.579C49.5391 23.483 49.8341 23.434 49.9901 23.434C50.2031 23.434 50.4361 23.483 50.6881 23.579C50.8263 23.4878 50.9875 23.4375 51.1531 23.434H51.8531C51.9341 23.4373 52.0143 23.4172 52.0841 23.376C52.1544 23.4176 52.2354 23.4377 52.3171 23.434H52.7241C52.8891 23.434 53.0441 23.414 53.1901 23.376C53.3351 23.414 53.4901 23.434 53.6551 23.434C53.1121 23.492 53.4271 23.521 54.6001 23.521C54.5911 23.511 54.6301 23.507 54.7171 23.507C54.8431 23.42 54.9541 23.376 55.0511 23.376C55.6131 23.414 55.9381 23.434 56.0261 23.434V23.391L56.4481 23.507L58.3681 23.376L58.7161 23.434L59.4431 23.303L59.5031 23.449L60.2291 23.376H60.9861C61.0531 23.376 61.0871 23.4 61.0871 23.449C61.0681 23.449 61.0581 23.425 61.0581 23.376L61.6841 23.303C62.0221 23.352 62.2801 23.376 62.4541 23.376V23.594L62.0761 23.376H62.4401C62.5851 23.376 62.7551 23.352 62.9501 23.303L63.0651 23.376L63.9531 23.231L64.2291 23.376C64.3025 23.3709 64.3731 23.3457 64.4331 23.303C64.5101 23.303 64.5491 23.327 64.5491 23.376C64.8529 23.3356 65.1587 23.3112 65.4651 23.303H66.6291L66.9791 23.231C67.0651 23.269 67.1091 23.318 67.1091 23.376C67.2151 23.376 67.3851 23.332 67.6191 23.245L67.9091 23.375C67.9861 23.327 68.0631 23.352 68.1411 23.449H68.1561V23.637H68.3591C68.3991 23.367 68.4421 23.231 68.4911 23.231H69.8581L70.0901 23.637H70.3811C70.4291 23.454 70.4541 23.337 70.4541 23.289C70.4741 23.289 70.4841 23.318 70.4841 23.376L70.3521 23.231C70.5651 23.231 70.8321 23.367 71.1521 23.637C71.2681 23.637 71.3261 23.565 71.3261 23.42H71.1521L71.2981 23.274L71.4721 23.244C71.5021 23.554 71.6271 23.71 71.8501 23.71C71.8501 23.439 71.6611 23.327 71.2831 23.376H72.2431L72.1561 23.71H72.3301C72.4761 23.71 72.6161 23.643 72.7521 23.507C72.8591 23.507 72.9901 23.579 73.1451 23.725L73.3201 23.623L73.2461 23.449V23.405C73.2461 23.434 73.2561 23.449 73.2761 23.449C73.2761 23.399 73.4401 23.487 73.7701 23.709H74.0031C74.0031 23.565 74.1241 23.454 74.3661 23.376C74.4415 23.4185 74.5276 23.4387 74.6141 23.434C74.5261 23.492 74.5651 23.521 74.7301 23.521C74.7301 23.471 74.7981 23.491 74.9341 23.579C74.9641 23.579 75.0451 23.555 75.1811 23.507H75.3991C75.4293 23.4669 75.4538 23.4228 75.4721 23.376H75.7341C75.7441 23.396 75.7481 23.472 75.7481 23.608L75.8791 23.754C75.7821 23.754 75.6511 23.696 75.4861 23.579V23.492L75.6031 23.565C75.1961 23.691 74.9771 23.754 74.9481 23.754H74.6581C74.5221 23.754 74.3421 23.734 74.1191 23.696L73.8861 23.826C73.6803 23.7836 73.4711 23.7595 73.2611 23.754H73.1881C72.9181 23.919 72.7811 23.953 72.7811 23.854C72.6747 23.7926 72.5548 23.7583 72.4321 23.754C72.3061 23.851 72.2141 23.899 72.1561 23.899L71.8211 23.812V23.958H71.4431V23.826H71.3261C71.2491 23.924 70.9681 23.991 70.4831 24.031C70.4831 23.981 70.3961 23.958 70.2211 23.958H70.1191C69.7411 24.055 69.4701 24.104 69.3051 24.104L68.8831 24.031L68.6651 24.161L68.3751 24.104C68.2771 24.104 68.0251 24.147 67.6181 24.234C67.0741 24.147 66.7741 24.054 66.7161 23.958H66.6161C66.4881 24.093 66.4011 24.162 66.3521 24.162C66.2475 24.0818 66.1207 24.0361 65.9891 24.031H65.9301C65.8531 24.031 65.5811 24.141 65.1161 24.365L65.0141 24.307H63.7201C63.5741 24.307 63.4051 24.327 63.2111 24.365C63.1348 24.3247 63.0494 24.3047 62.9631 24.307C62.7401 24.307 62.6291 24.341 62.6291 24.407C62.5006 24.3346 62.3543 24.3 62.2071 24.307H61.8581C61.8191 24.307 61.6641 24.35 61.3931 24.437H61.1601C61.0731 24.437 60.8981 24.394 60.6361 24.307L59.8221 24.51C59.7921 24.51 59.7391 24.486 59.6621 24.438C58.4691 24.525 57.4561 24.568 56.6221 24.568H56.3891C56.2441 24.568 56.0691 24.593 55.8651 24.641L55.5891 24.51L53.8871 24.64L53.5971 24.568C53.4511 24.626 53.3781 24.67 53.3781 24.698L52.8411 24.641H52.0261C51.8031 24.641 51.5121 24.69 51.1531 24.786C51.0558 24.7912 50.9594 24.766 50.8771 24.714L48.8841 24.844L48.5351 24.772C48.2451 24.869 48.0501 24.918 47.9531 24.918L47.3711 24.845C44.8611 24.991 41.6461 25.275 37.7291 25.703C37.7591 25.713 37.6311 25.945 37.3501 26.401C37.3501 26.508 37.0401 27.163 36.4201 28.364C35.6831 30.527 35.3141 31.666 35.3141 31.782C35.3141 31.831 35.3341 31.899 35.3721 31.987C35.2561 32.452 35.1981 32.927 35.1981 33.412V34.022C35.2951 34.595 35.6191 34.881 36.1721 34.881C36.8031 34.881 37.9761 34.313 39.6921 33.179C40.1961 32.869 40.6421 32.553 41.0301 32.234C41.5341 31.691 42.1161 30.929 42.7751 29.95L42.8631 30.08C42.7882 30.6308 42.6261 31.1661 42.3831 31.666C41.1431 33.17 40.2641 34.032 39.7501 34.255C39.5081 34.507 39.1401 34.779 38.6451 35.07C37.6561 35.749 36.8121 36.088 36.1151 36.088C35.3091 35.972 34.7221 35.685 34.3551 35.23C34.3551 35.055 34.2581 34.832 34.0631 34.56L34.1231 34.444V34.299C34.1176 34.1199 34.056 33.9471 33.9471 33.805V33.688L34.0631 33.484V33.077C34.0631 32.912 34.0831 32.704 34.1231 32.452C34.0918 32.3928 34.0714 32.3284 34.0631 32.262C34.1801 31.584 34.4131 30.792 34.7611 29.892C34.8191 29.329 34.9751 28.898 35.2271 28.598C35.3431 27.996 35.5181 27.546 35.7501 27.245C36.0221 26.722 36.1571 26.382 36.1571 26.227C36.084 26.2219 36.0137 26.1966 35.9541 26.154L30.9361 27.114C30.5971 26.939 30.3781 26.744 30.2821 26.532L30.3401 26.182L30.4851 25.862C33.6751 25.165 35.8911 24.748 37.1331 24.612C37.7231 23.759 38.0201 23.206 38.0201 22.954C38.1651 22.761 38.4321 22.222 38.8201 21.34L38.9071 21.282ZM69.7571 23.405H70.0771V23.71L69.9171 24.074C69.782 23.9862 69.626 23.9358 69.4651 23.928C69.4651 23.618 69.5631 23.443 69.7571 23.405ZM73.4801 23.449H73.7411V23.144H73.4811L73.4801 23.449ZM75.3401 23.783H75.8351V23.275H75.3401V23.783ZM76.3301 23.579H76.5921V23.274H76.3301V23.579ZM76.8241 23.623C76.6501 23.593 76.5641 23.502 76.5641 23.347H76.8241V23.623ZM77.1151 23.623C77.1351 23.623 77.1451 23.662 77.1451 23.739L77.6551 23.608H76.9701L77.1151 23.623ZM78.0751 23.463V23.55C78.0951 23.55 78.0561 23.599 77.9591 23.696H77.9301C77.8331 23.57 77.8811 23.492 78.0751 23.463ZM78.3671 23.855H78.6281V23.55H78.3681L78.3671 23.855ZM80.2421 23.507H79.9371V23.477H80.0831V23.536L80.1131 23.594L80.2421 23.507Z" fill="white"/>
<path d="M47.2991 29.2659C47.2991 29.6739 46.7701 30.6769 45.7131 32.2769C45.3541 33.0429 45.1751 33.6539 45.1751 34.1099C45.1751 34.2749 45.2721 34.3569 45.4661 34.3569H45.7131C46.5951 34.0759 47.9391 32.9509 49.7431 30.9819C50.0431 30.9239 50.1931 30.7599 50.1931 30.4879C50.2031 30.4209 50.2361 30.3869 50.2951 30.3869H50.3381C50.3881 30.3869 50.4351 30.4349 50.4841 30.5319V30.6769C50.4841 30.8329 50.3051 31.1289 49.9461 31.5639C49.8001 32.0199 49.1661 32.7999 48.0401 33.9059C47.2941 34.5849 46.5331 35.0639 45.7571 35.3459H45.5681C44.7921 35.3459 44.2781 35.0309 44.0261 34.3999C44.0261 34.3039 44.0111 34.2549 43.9821 34.2549C44.0121 34.1289 44.0461 34.0659 44.0841 34.0659L44.0261 33.9649V33.6149C44.1331 32.9939 44.5981 32.1359 45.4221 31.0399C45.4221 30.9639 45.5821 30.7349 45.9031 30.3579C46.1061 29.9789 46.2081 29.7319 46.2081 29.6159V29.5569H46.0041C45.2191 29.9929 44.5111 30.2119 43.8811 30.2119H43.8371C43.7981 30.2119 43.5321 30.5409 43.0371 31.2009C42.9491 31.2535 42.8495 31.2834 42.7471 31.2879H42.7021C42.5281 31.2879 42.3781 31.1579 42.2521 30.8949C42.2721 30.7209 42.4221 30.5409 42.7021 30.3579C42.7021 30.2989 42.7321 30.2159 42.7901 30.1089L42.4551 29.7169V29.6589C42.4551 29.4749 42.5661 29.3099 42.7901 29.1639H43.1401L43.8811 28.9749L44.2311 29.2219C45.1031 29.0189 45.7961 28.8009 46.3091 28.5689C46.4451 28.5689 46.5761 28.5539 46.7021 28.5249C46.9061 28.5249 47.1051 28.7719 47.2991 29.2659Z" fill="white"/>
<path d="M50.2661 29.979H50.3821C50.4802 29.9753 50.5772 30.0011 50.6605 30.0532C50.7438 30.1052 50.8095 30.1811 50.8491 30.271V30.445C50.1891 31.685 49.8591 32.695 49.8591 33.47V34.11C49.8591 34.41 49.9761 34.624 50.2091 34.75H50.6731C51.1871 34.75 52.1001 34.168 53.4091 33.005C53.5241 33.005 53.6411 32.889 53.7571 32.655C53.8161 32.655 54.3391 32.112 55.3271 31.025C55.3861 31.025 55.4441 30.91 55.5021 30.677C55.7351 30.523 55.9101 30.445 56.0261 30.445H56.0841C56.1611 30.454 56.2011 30.494 56.2011 30.561C55.8711 31.599 55.2111 32.684 54.2221 33.82C53.0681 34.925 52.0791 35.584 51.2561 35.797L50.6731 35.914C49.3161 35.759 48.6371 35.099 48.6371 33.936C48.5891 33.936 48.5491 33.82 48.5201 33.586C48.8121 32.054 49.2381 31.026 49.8001 30.503L50.2671 29.979H50.2661ZM53.4661 25.209C53.8741 25.286 54.0861 25.325 54.1061 25.325V25.499C53.9701 25.936 53.3301 26.537 52.1861 27.303C51.6131 27.652 51.1881 27.827 50.9061 27.827C50.5181 27.777 50.3251 27.584 50.3251 27.245C50.3251 26.954 50.9451 26.508 52.1861 25.907C52.4961 25.674 52.9231 25.441 53.4661 25.209Z" fill="white"/>
<path d="M60.8261 23.7971H60.9411C61.2711 23.7971 61.5331 23.9331 61.7271 24.2051V24.2631C61.4271 25.2901 61.1071 26.0661 60.7671 26.5891C60.7871 26.9791 60.2051 27.8321 59.0221 29.1491V29.2091C59.8361 29.2091 60.2581 29.5571 60.2871 30.2561C60.3071 30.6721 60.1601 31.4101 59.8511 32.4661H60.0251C60.9071 32.1861 62.0321 31.4571 63.4001 30.2861H63.5161C63.5931 30.2941 63.6321 30.3321 63.6321 30.4011C63.6521 30.7981 63.1381 31.5061 62.0921 32.5241C61.4321 33.0871 60.7381 33.4361 60.0121 33.5711C59.7612 33.5329 59.5078 33.5135 59.2541 33.5131C59.1961 33.5131 58.7351 34.0171 57.8721 35.0261C57.1751 35.3361 56.6561 35.4911 56.3161 35.4911C55.4921 35.2291 55.0611 34.6471 55.0221 33.7451L55.0071 33.4551L55.5451 31.1281C55.5451 31.0991 55.3081 30.9821 54.8331 30.7791C54.7551 30.6531 54.7161 30.5561 54.7161 30.4891C54.7071 30.4301 54.8181 30.3141 55.0511 30.1391L55.1671 30.1991C55.8471 30.1991 56.2771 29.9261 56.4621 29.3831C56.4621 29.2561 56.6601 28.9081 57.0581 28.3351C57.8921 26.8521 58.8281 25.5531 59.8651 24.4371C60.4561 24.0201 60.7771 23.8071 60.8261 23.7971ZM56.7671 31.1281C56.3111 32.0781 56.0981 32.9511 56.1271 33.7451C56.1471 34.2501 56.2921 34.5021 56.5631 34.5021C56.9901 34.5021 57.5771 34.0951 58.3231 33.2821L58.3091 33.2221C57.3971 32.5731 56.9271 31.8941 56.8991 31.1861L56.7671 31.1281ZM57.9451 28.6281V28.6851H58.0031C58.6431 28.2771 59.3661 27.4451 60.1701 26.1831C60.3641 25.7171 60.5301 25.4841 60.6651 25.4841L60.6501 25.0781H60.5921C60.3691 25.0781 59.9431 25.5421 59.3121 26.4731C58.9341 26.8731 58.4781 27.5901 57.9451 28.6281ZM58.1201 31.3611C58.1401 31.7291 58.3671 32.0391 58.8031 32.2921H58.9781C59.4141 31.6521 59.6221 31.0521 59.6031 30.4881L59.5311 30.2561C59.5699 30.1847 59.585 30.1027 59.5741 30.0221L59.4001 29.9061H59.2831C58.5951 29.9061 58.2071 30.3521 58.1201 31.2461V31.3611Z" fill="white"/>
<path d="M65.2621 29.1499C65.5041 29.1499 65.7711 29.3149 66.0621 29.6439C66.0621 30.1779 65.9311 30.6279 65.6691 30.9969C64.7191 32.1029 63.9391 32.7089 63.3271 32.8149L62.6731 33.1199V33.3249C62.6731 33.7709 63.0661 33.9929 63.8511 33.9929C64.395 33.9423 64.9303 33.8227 65.4441 33.6369C65.9721 33.4469 66.7111 32.7969 67.6621 31.6799C67.8461 31.2739 68.1561 30.8799 68.5921 30.5019H68.8111C68.8111 30.6389 68.8451 30.7499 68.9131 30.8369V30.9669C67.9131 33.2369 66.4251 34.5649 64.4481 34.9539C64.2356 34.9569 64.0247 34.9909 63.8221 35.0549C62.6201 35.0549 61.8151 34.4549 61.4081 33.2519L61.3351 32.3779H61.5821C61.6991 31.6509 62.3291 30.8279 63.4721 29.9059C64.2101 29.4009 64.8061 29.1499 65.2621 29.1499ZM62.8471 31.9569C63.9721 31.5699 64.7371 30.9589 65.1451 30.1229V30.0649C65.1351 30.0269 65.1451 30.0069 65.1741 30.0069C64.4671 30.1539 63.7201 30.8029 62.9341 31.9569H62.8471ZM69.1161 30.2269L69.2621 30.5169L69.0291 30.6339H68.6791V30.3139L69.1161 30.2269Z" fill="white"/>
</g>
<defs>
<clipPath id="clip0_19_643">
<rect width="108.811" height="37" fill="white"/>
</clipPath>
</defs>
</svg>
