<svg width="325" height="110" viewBox="0 0 325 110" fill="none" xmlns="http://www.w3.org/2000/svg">
<path d="M51.9642 3.46352C50.5181 3.46352 48.3505 3.5646 47.0475 3.62406C46.5317 3.64784 46.1589 3.66568 46.0635 3.66568C45.8229 3.65884 45.5824 3.64892 45.342 3.63595L39.1401 3.46352C37.7537 3.46352 37.6821 3.65973 37.6821 3.70135C37.6821 3.78162 37.8342 3.87081 38.2606 3.87081C38.9523 3.87081 40.2284 3.87081 41.1826 4.0046C41.7789 4.07595 42.247 4.25433 42.6436 4.51892V34.317L14.795 1.93243V1.79865L14.7323 1.85811L14.6757 1.79865V1.9027L7.66285 8.45811V38.7468L2.53441 45.4062C6.41056 46.4824 7.52271 49.277 7.66583 52.6573V54.5838L14.8009 47.9243V12.6827L49.728 52.907V52.8535L49.7727 52.907V4.14135H49.722C49.8996 4.07676 50.0835 4.03092 50.2706 4.0046C50.8551 3.93919 51.8807 3.87081 52.5128 3.87081C52.8885 3.87081 53.0197 3.78162 53.0197 3.70135C53.0197 3.65973 52.9661 3.46352 51.9702 3.46352H51.9642ZM42.6436 42.023L14.795 9.78108V4.84595L42.6436 37.0373V42.023ZM84.8876 3.4427L82.1564 0.719462L79.4193 3.4427C67.1796 4.79838 57.6532 15.1414 57.6532 27.7111C57.6544 33.7171 59.8746 39.5122 63.8897 43.9894C67.9048 48.4667 73.4333 51.3122 79.4193 51.9824L82.1564 54.7057L84.8876 51.9824C90.8675 51.3051 96.388 48.4567 100.396 43.9804C104.405 39.5042 106.62 33.7134 106.62 27.7126C106.62 21.7118 104.405 15.921 100.396 11.4447C96.388 6.96844 90.8675 4.12 84.8876 3.4427ZM85.2007 45.1149L82.1564 42.0795L79.1062 45.1119C74.9962 44.3982 71.2704 42.262 68.5843 39.0791C65.8983 35.8963 64.4243 31.8708 64.4216 27.7111C64.4237 23.5512 65.8975 19.5254 68.5836 16.3425C71.2698 13.1595 74.9959 11.0234 79.1062 10.3103L82.1564 13.3427L85.1977 10.3103C89.308 11.0227 93.0345 13.1581 95.7211 16.3405C98.4078 19.5229 99.8824 23.5483 99.8853 27.7081C99.8833 31.8683 98.4096 35.8945 95.7235 39.078C93.0374 42.2614 89.3112 44.3981 85.2007 45.1119V45.1149ZM139.055 23.6173L122.895 3.54973H116.305V52.4105H123.264V14.3892L123.273 14.3981L123.276 6.66243L138.96 26.3078V33.6957L154.628 14.3892V52.4076H161.626V3.54973H155.114L139.055 23.6173ZM309.785 10.0368C311.454 10.0368 313.142 10.2092 314.83 10.5214L317.668 13.3457L324.001 7.03406L317.665 0.719462L314.403 3.96892C312.695 3.70135 311.034 3.54973 309.439 3.54973C302.158 3.54973 296.033 5.91919 291.072 10.6522C286.104 15.3881 283.624 21.227 283.624 28.1689C283.597 32.4483 284.719 36.6568 286.874 40.3581C288.971 44.0427 292.024 47.0974 295.711 49.2027C299.432 51.3403 303.964 52.4105 309.305 52.4105C310.9 52.4105 312.447 52.3214 313.95 52.1608L316.768 45.65L316.726 45.2427C314.435 45.8278 312.081 46.1254 309.716 46.1286C304.17 46.1286 299.614 44.4459 296.051 41.0746C292.488 37.7062 290.708 33.4043 290.708 28.1689C290.708 22.9781 292.518 18.6554 296.138 15.2127C299.757 11.7611 304.304 10.0368 309.785 10.0368ZM267.961 6.35622L273.617 11.9959L269.839 15.7627L270.883 16.8032V27.4286L268.796 29.5068L270.883 31.5819V52.4105L277.753 45.7005V31.5789L279.834 29.5068L277.753 27.4257V16.7973L278.784 15.7657L275.004 11.9989L280.639 6.38595V6.33243L274.312 0.020813L267.958 6.35325L267.961 6.35622ZM253.888 10.3281C253.43 9.85718 252.949 9.40872 252.447 8.98433C252.286 8.8446 252.111 8.7227 251.947 8.59189C251.616 8.32197 251.277 8.0622 250.93 7.81298C250.721 7.66433 250.509 7.53649 250.298 7.39676C249.979 7.1946 249.666 6.98946 249.344 6.80216C249.114 6.67135 248.878 6.54946 248.646 6.4246C248.333 6.26108 248.026 6.0946 247.71 5.94297C247.463 5.82871 247.215 5.71869 246.964 5.61298C246.109 5.23132 245.23 4.90268 244.334 4.62892C243.768 4.45152 243.196 4.2909 242.62 4.1473L241.812 3.95406C241.693 3.92433 241.573 3.8946 241.454 3.87081V3.8827C236.356 2.80946 231.346 2.96108 227.905 2.96108C227.238 2.96108 226.564 2.97298 225.902 2.98189V2.97892L225.18 2.99379H214.658C213.718 2.97364 212.778 2.96373 211.837 2.96406C211.104 2.96406 210.83 3.08 210.806 3.20189C210.946 3.20189 211.044 3.21081 211.178 3.21081C211.629 3.21081 212.073 3.21973 212.461 3.23757C212.622 3.24649 212.759 3.2673 212.911 3.27919C213.221 3.3 213.537 3.32081 213.814 3.35946C213.999 3.38622 214.16 3.43676 214.336 3.47243C214.563 3.52 214.795 3.55865 215.013 3.62108C215.239 3.69243 215.463 3.79649 215.687 3.88865C215.848 3.95406 216.003 3.99865 216.161 4.07298C217.071 4.52439 217.933 5.06835 218.731 5.69622C218.889 5.82703 219.041 5.95189 219.163 6.06487V48.7449C218.514 49.3792 217.809 49.9533 217.055 50.4603C216.606 50.7558 216.131 51.0096 215.636 51.2184C215.396 51.3191 215.146 51.3939 214.891 51.4414C214.804 51.4592 214.7 51.4651 214.61 51.48C214.414 51.5097 214.223 51.5395 214.005 51.5573C213.868 51.5692 213.71 51.5692 213.561 51.5781C213.37 51.587 213.188 51.5989 212.979 51.6019H212.347L211.802 51.6078H211.799C211.858 51.6911 212.076 52.3808 212.812 52.3808H224.548C227.333 52.577 230.762 52.3808 233.547 52.3808C234.769 52.3808 235.911 52.3184 237.008 52.2173L237.113 52.2084C245.843 51.3641 250.709 47.5289 253.175 44.9543C256.598 41.363 259.744 35.5746 260.107 28.1124H260.14C260.164 27.6605 260.173 27.2027 260.173 26.7389C260.173 19.0508 257.132 13.6876 253.888 10.3281ZM232.247 45.6351C230.07 45.6333 227.903 45.3352 225.806 44.7492V49.4346L225.747 49.4168C225.537 49.3589 225.33 49.2955 225.124 49.2265L224.939 49.1641C224.491 48.9956 224.062 48.7803 223.66 48.5219C223.299 48.2684 222.984 47.957 222.726 47.6003C222.67 47.523 222.628 47.3803 222.577 47.2435C222.553 47.1692 222.518 47.1097 222.494 47.0176C222.449 46.8468 222.413 46.6742 222.383 46.5003C222.363 46.4081 222.345 46.3308 222.327 46.2297C222.286 45.9719 222.251 45.7132 222.222 45.4538C222.217 45.3914 222.205 45.3349 222.202 45.2754C222.115 44.4162 222.053 43.5547 222.017 42.6919C221.951 41.467 221.886 35.5241 221.886 28.6743V20.6622L221.889 17.8973C221.903 15.0641 221.921 12.0643 221.939 9.74541L221.951 6.6446C221.947 6.50232 221.963 6.36015 221.999 6.22243C222.058 5.98162 222.222 5.84487 222.667 5.63973L222.726 5.61C223.12 5.41676 224.563 5.25919 225.806 5.19379V11.1516C227.903 10.5666 230.07 10.2695 232.247 10.2687C243.711 10.2687 252.999 18.1857 252.999 27.9489C252.999 37.7151 243.711 45.6322 232.247 45.6322V45.6351ZM190.823 3.52297H188.306L186.815 7.01622L185.259 3.52297H177.164L182.874 16.2473L167.42 52.473H169.587L184.108 18.9973L199.121 52.473H207.064L188.077 9.84649L190.823 3.52297Z" fill="white"/>
<path d="M114.498 63.2708L115.363 63.4878L116.362 63.2708C116.881 63.9338 117.143 64.4214 117.143 64.7395C117.143 65.5124 115.986 67.867 113.672 71.7854C113.732 72.163 113.89 72.3503 114.15 72.3503H116.97C117.546 72.0916 122.492 71.6011 131.801 70.8787L134.532 70.4892L135.4 70.2722C136.414 70.4178 137.293 70.4892 138.044 70.4892C138.277 70.2603 139.419 70.0581 141.473 69.8857C142.079 70.0284 142.657 70.0997 143.206 70.0997H143.9C144.144 70.1118 144.386 70.0518 144.595 69.9273L144.896 70.0997C146.199 69.8143 147.079 69.6687 147.544 69.6687C148.179 69.6687 148.874 69.8143 149.625 70.0997C150.037 69.8285 150.518 69.6791 151.012 69.6687H153.099C153.34 69.6786 153.58 69.6188 153.788 69.4962C153.997 69.6199 154.239 69.6798 154.482 69.6687H155.696C156.188 69.6687 156.65 69.6092 157.085 69.4962C157.518 69.6092 157.98 69.6687 158.472 69.6687C156.853 69.8411 157.792 69.9273 161.289 69.9273C161.263 69.8976 161.379 69.8857 161.638 69.8857C162.014 69.627 162.345 69.4962 162.634 69.4962C164.31 69.6092 165.279 69.6687 165.541 69.6687V69.5408L166.8 69.8857L172.524 69.4962L173.562 69.6687L175.73 69.2792L175.908 69.7132L178.073 69.4962H180.33C180.53 69.4962 180.631 69.5676 180.631 69.7132C180.575 69.7132 180.545 69.6419 180.545 69.4962L182.411 69.2792C183.419 69.4249 184.189 69.4962 184.707 69.4962V70.1443L183.58 69.4962H184.666C185.098 69.4962 185.605 69.4249 186.186 69.2792L186.529 69.4962L189.177 69.0651L190 69.4962C190.219 69.4812 190.429 69.4061 190.608 69.2792C190.838 69.2792 190.954 69.3505 190.954 69.4962C191.86 69.3762 192.771 69.3037 193.685 69.2792H197.156L198.199 69.0651C198.456 69.1781 198.587 69.3238 198.587 69.4962C198.903 69.4962 199.41 69.3654 200.108 69.1068L200.972 69.4932C201.202 69.3505 201.431 69.4249 201.664 69.7132H201.709V70.2722H202.314C202.433 69.4695 202.561 69.0651 202.708 69.0651H206.783L207.475 70.2722H208.343C208.486 69.7281 208.561 69.3803 208.561 69.2376C208.62 69.2376 208.65 69.3238 208.65 69.4962L208.256 69.0651C208.892 69.0651 209.688 69.4695 210.642 70.2722C210.988 70.2722 211.161 70.0581 211.161 69.627H210.642L211.077 69.193L211.596 69.1038C211.685 70.0254 212.058 70.4892 212.723 70.4892C212.723 69.6835 212.159 69.3505 211.032 69.4962H213.895L213.635 70.4892H214.154C214.589 70.4892 215.007 70.29 215.412 69.8857C215.731 69.8857 216.122 70.0997 216.584 70.5338L217.106 70.2305L216.885 69.7132V69.5824C216.885 69.6687 216.915 69.7132 216.975 69.7132C216.975 69.5646 217.464 69.8262 218.448 70.4862H219.142C219.142 70.0581 219.503 69.7281 220.225 69.4962C220.45 69.6227 220.706 69.6825 220.964 69.6687C220.702 69.8411 220.818 69.9273 221.31 69.9273C221.31 69.7787 221.513 69.8381 221.918 70.0997C222.008 70.0997 222.249 70.0284 222.655 69.8857H223.305C223.395 69.7664 223.468 69.6353 223.522 69.4962H224.304C224.333 69.5557 224.345 69.7816 224.345 70.1859L224.736 70.62C224.447 70.62 224.056 70.4476 223.564 70.0997V69.8411L223.913 70.0581C222.7 70.4327 222.047 70.62 221.96 70.62H221.095C220.69 70.62 220.153 70.5605 219.488 70.4476L218.794 70.8341C218.18 70.7079 217.556 70.6363 216.93 70.62H216.712C215.907 71.1105 215.499 71.2116 215.499 70.9173C215.182 70.735 214.824 70.6329 214.458 70.62C214.083 70.9084 213.808 71.0511 213.635 71.0511L212.636 70.7924V71.2265H211.509V70.8341H211.161C210.931 71.1254 210.093 71.3246 208.647 71.4435C208.647 71.2949 208.388 71.2265 207.866 71.2265H207.562C206.435 71.5149 205.627 71.6605 205.135 71.6605L203.876 71.4435L203.226 71.83L202.362 71.6605C202.069 71.6605 201.318 71.7884 200.105 72.047C198.483 71.7884 197.588 71.5119 197.415 71.2265H197.117C196.735 71.6278 196.476 71.833 196.33 71.833C196.018 71.5947 195.64 71.4586 195.247 71.4435H195.072C194.842 71.4435 194.031 71.7705 192.644 72.4365L192.34 72.2641H188.482C188.047 72.2641 187.543 72.3235 186.964 72.4365C186.737 72.3166 186.482 72.2572 186.225 72.2641C185.56 72.2641 185.229 72.3651 185.229 72.5614C184.846 72.3463 184.41 72.2432 183.971 72.2641H182.93C182.814 72.2641 182.352 72.3919 181.544 72.6505H180.849C180.59 72.6505 180.068 72.5227 179.287 72.2641L176.86 72.8676C176.77 72.8676 176.612 72.7962 176.383 72.6535C172.825 72.9122 169.805 73.04 167.318 73.04H166.624C166.191 73.04 165.669 73.1143 165.061 73.257L164.238 72.8676L159.164 73.2541L158.299 73.04C157.864 73.2124 157.646 73.3432 157.646 73.4265L156.045 73.257H153.615C152.95 73.257 152.082 73.4027 151.012 73.6881C150.722 73.7035 150.434 73.6287 150.189 73.4741L144.246 73.8605L143.206 73.6465C142.341 73.9349 141.76 74.0805 141.47 74.0805L139.735 73.8635C132.251 74.2976 122.665 75.1419 110.986 76.4143C111.075 76.4441 110.694 77.1338 109.856 78.4895C109.856 78.8076 108.932 80.7549 107.083 84.3254C104.886 90.756 103.785 94.1422 103.785 94.487C103.785 94.6327 103.845 94.8349 103.958 95.0965C103.612 96.4789 103.439 97.8911 103.439 99.333V101.146C103.729 102.85 104.695 103.7 106.344 103.7C108.225 103.7 111.722 102.012 116.839 98.6403C118.342 97.7187 119.672 96.7792 120.828 95.8308C122.331 94.2165 124.067 91.9511 126.031 89.0405L126.294 89.427C126.07 91.0645 125.587 92.6561 124.863 94.1422C121.165 98.6135 118.544 101.176 117.012 101.839C116.29 102.588 115.193 103.397 113.717 104.262C110.768 106.281 108.252 107.289 106.174 107.289C103.77 106.944 102.02 106.091 100.926 104.738C100.926 104.218 100.637 103.555 100.055 102.746L100.234 102.401V101.97C100.218 101.438 100.034 100.924 99.7094 100.501V100.154L100.055 99.547V98.337C100.055 97.8465 100.115 97.2281 100.234 96.4789C100.141 96.303 100.08 96.1116 100.055 95.9141C100.404 93.8984 101.099 91.5438 102.136 88.8681C102.309 87.1943 102.775 85.913 103.526 85.0211C103.872 83.2314 104.394 81.8935 105.085 80.9987C105.896 79.4438 106.299 78.433 106.299 77.9722C106.081 77.9571 105.871 77.8819 105.694 77.7551L90.7317 80.6092C89.7209 80.0889 89.0679 79.5092 88.7816 78.8789L88.9546 77.8384L89.3869 76.887C98.8984 74.8149 105.506 73.5751 109.209 73.1708C110.968 70.6349 111.854 68.9908 111.854 68.2416C112.286 67.6678 113.082 66.0654 114.239 63.4432L114.498 63.2708ZM206.482 69.5824H207.436V70.4892L206.959 71.5714C206.557 71.3103 206.092 71.1605 205.612 71.1373C205.612 70.2157 205.904 69.6954 206.482 69.5824ZM217.583 69.7132H218.361V68.8065H217.586L217.583 69.7132ZM223.129 70.7062H224.605V69.1959H223.129V70.7062ZM226.081 70.0997H226.862V69.193H226.081V70.0997ZM227.554 70.2305C227.035 70.1414 226.778 69.8708 226.778 69.41H227.554V70.2305ZM228.421 70.2305C228.481 70.2305 228.511 70.3465 228.511 70.5754L230.031 70.1859H227.989L228.421 70.2305ZM231.284 69.7549V70.0135C231.343 70.0135 231.227 70.1592 230.938 70.4476H230.851C230.562 70.073 230.705 69.8411 231.284 69.7549ZM232.154 70.9203H232.933V70.0135H232.157L232.154 70.9203ZM237.745 69.8857H236.836V69.7965H237.271V69.9719L237.36 70.1443L237.745 69.8857Z" fill="#FFC107"/>
<path d="M139.52 87.0071C139.52 88.22 137.943 91.2019 134.792 95.9587C133.721 98.236 133.187 100.052 133.187 101.408C133.187 101.899 133.477 102.142 134.055 102.142H134.792C137.421 101.307 141.429 97.9625 146.808 92.1087C147.702 91.9362 148.149 91.4487 148.149 90.64C148.179 90.4408 148.278 90.3398 148.453 90.3398H148.582C148.731 90.3398 148.871 90.4825 149.017 90.7708V91.2019C149.017 91.6657 148.483 92.5457 147.413 93.8389C146.978 95.1946 145.087 97.5135 141.73 100.802C139.506 102.82 137.236 104.244 134.923 105.083H134.359C132.045 105.083 130.513 104.146 129.761 102.27C129.761 101.985 129.717 101.839 129.63 101.839C129.72 101.465 129.821 101.277 129.934 101.277L129.761 100.977V99.9365C130.081 98.0903 131.467 95.5395 133.924 92.2811C133.924 92.0552 134.401 91.3743 135.358 90.2535C135.963 89.1268 136.267 88.3925 136.267 88.0476V87.8722H135.659C133.319 89.1684 131.208 89.8195 129.329 89.8195H129.198C129.082 89.8195 128.289 90.7976 126.813 92.7598C126.55 92.9161 126.253 93.005 125.948 93.0184H125.814C125.295 93.0184 124.848 92.6319 124.472 91.85C124.532 91.3327 124.979 90.7976 125.814 90.2535C125.814 90.0781 125.903 89.8314 126.076 89.5133L125.077 88.3479V88.1754C125.077 87.6284 125.408 87.1379 126.076 86.7038H127.12L129.329 86.1419L130.373 86.8762C132.973 86.2727 135.039 85.6246 136.569 84.9349C136.974 84.9349 137.365 84.8903 137.74 84.8041C138.349 84.8041 138.942 85.5384 139.52 87.0071Z" fill="#FFC107"/>
<path d="M148.367 89.1268H148.713C149.005 89.1157 149.295 89.1925 149.543 89.3473C149.791 89.5021 149.987 89.7277 150.105 89.9949V90.5122C148.137 94.1987 147.153 97.2014 147.153 99.5054V101.408C147.153 102.3 147.502 102.936 148.197 103.311H149.581C151.113 103.311 153.835 101.581 157.738 98.123C158.081 98.123 158.43 97.7781 158.776 97.0824C158.952 97.0824 160.511 95.4681 163.457 92.2365C163.633 92.2365 163.806 91.8946 163.979 91.2019C164.674 90.7441 165.195 90.5122 165.541 90.5122H165.714C165.944 90.5389 166.063 90.6578 166.063 90.857C165.079 93.943 163.111 97.1687 160.162 100.546C156.722 103.831 153.773 105.79 151.319 106.424L149.581 106.771C145.534 106.311 143.51 104.348 143.51 100.891C143.367 100.891 143.247 100.546 143.161 99.8503C144.032 95.2957 145.302 92.2395 146.978 90.6846L148.37 89.1268H148.367ZM157.908 74.9457C159.125 75.1746 159.757 75.2905 159.817 75.2905V75.8078C159.411 77.107 157.503 78.8938 154.092 81.1711C152.383 82.2087 151.116 82.7289 150.275 82.7289C149.118 82.5803 148.543 82.0065 148.543 80.9987C148.543 80.1335 150.392 78.8076 154.092 77.0208C155.016 76.3281 156.289 75.6354 157.908 74.9457Z" fill="#FFC107"/>
<path d="M179.853 70.7479H180.196C181.18 70.7479 181.961 71.1522 182.54 71.9608V72.1333C181.645 75.1865 180.691 77.4935 179.677 79.0484C179.737 80.2079 178.002 82.7438 174.474 86.6592V86.8376C176.901 86.8376 178.16 87.8722 178.246 89.9503C178.306 91.1871 177.867 93.3811 176.946 96.5206H177.465C180.095 95.6881 183.449 93.5208 187.528 90.0395H187.874C188.103 90.0633 188.22 90.1762 188.22 90.3814C188.279 91.5616 186.747 93.6665 183.628 96.693C181.66 98.3668 179.591 99.4043 177.426 99.8057C176.678 99.6921 175.923 99.6345 175.166 99.6333C174.993 99.6333 173.619 101.132 171.045 104.131C168.967 105.053 167.42 105.514 166.406 105.514C163.949 104.735 162.664 103.005 162.548 100.323L162.503 99.4608L164.107 92.5427C164.107 92.4565 163.4 92.1087 161.984 91.5052C161.752 91.1306 161.635 90.8422 161.635 90.643C161.608 90.4676 161.939 90.1227 162.634 89.6025L162.98 89.7808C165.008 89.7808 166.29 88.9692 166.841 87.3549C166.841 86.9773 167.432 85.9427 168.618 84.2392C171.105 79.8303 173.896 75.9684 176.988 72.6506C178.75 71.4108 179.707 70.7776 179.853 70.7479ZM167.751 92.5427C166.391 95.3671 165.756 97.9625 165.842 100.323C165.902 101.824 166.334 102.574 167.142 102.574C168.416 102.574 170.166 101.364 172.39 98.9465L172.348 98.7681C169.629 96.8387 168.228 94.82 168.144 92.7152L167.751 92.5427ZM171.263 85.1103V85.2798H171.436C173.344 84.0668 175.5 81.5933 177.897 77.8414C178.476 76.456 178.971 75.7633 179.373 75.7633L179.328 74.5562H179.155C178.491 74.5562 177.22 75.9357 175.339 78.7035C174.212 79.8927 172.852 82.0243 171.263 85.1103ZM171.785 93.2354C171.844 94.3295 172.521 95.2511 173.821 96.0033H174.343C175.643 94.1006 176.263 92.3168 176.207 90.64L175.992 89.9503C176.108 89.7379 176.153 89.4942 176.12 89.2546L175.601 88.9098H175.253C173.201 88.9098 172.044 90.2357 171.785 92.8935V93.2354Z" fill="#FFC107"/>
<path d="M193.08 86.6622C193.801 86.6622 194.597 87.1527 195.465 88.1308C195.465 89.7184 195.075 91.0562 194.293 92.1532C191.461 95.4413 189.135 97.243 187.31 97.5581L185.36 98.4649V99.0743C185.36 100.4 186.532 101.06 188.873 101.06C190.495 100.91 192.091 100.554 193.622 100.002C195.197 99.437 197.4 97.5046 200.236 94.1838C200.784 92.9767 201.709 91.8054 203.009 90.6816H203.662C203.662 91.0889 203.763 91.4189 203.966 91.6776V92.064C200.984 98.8127 196.547 102.761 190.653 103.917C190.019 103.926 189.39 104.027 188.786 104.218C185.202 104.218 182.802 102.434 181.589 98.8573L181.371 96.2589H182.107C182.456 94.0976 184.335 91.6508 187.743 88.9097C189.943 87.4084 191.72 86.6622 193.08 86.6622ZM185.879 95.0073C189.233 93.8567 191.514 92.0403 192.731 89.5549V89.3824C192.701 89.2695 192.731 89.21 192.817 89.21C190.709 89.647 188.482 91.5765 186.139 95.0073H185.879ZM204.571 89.864L205.006 90.7262L204.312 91.074H203.268V90.1227L204.571 89.864Z" fill="#FFC107"/>
</svg>
