<svg width="24" height="19" viewBox="0 0 24 19" fill="none" xmlns="http://www.w3.org/2000/svg">
<g id="icon">
<path d="M10.853 4.5C10.853 6.70914 9.06217 8.5 6.85303 8.5C4.64389 8.5 2.85303 6.70914 2.85303 4.5C2.85303 2.29086 4.64389 0.5 6.85303 0.5C9.06217 0.5 10.853 2.29086 10.853 4.5ZM4.83018 4.5C4.83018 5.61719 5.73584 6.52284 6.85303 6.52284C7.97021 6.52284 8.87587 5.61719 8.87587 4.5C8.87587 3.38281 7.97021 2.47716 6.85303 2.47716C5.73584 2.47716 4.83018 3.38281 4.83018 4.5Z" fill="#0F0F0F"/>
<path fill-rule="evenodd" clip-rule="evenodd" d="M2.22465 11.7378C3.39674 10.8886 4.95054 10.5 6.85303 10.5C8.75552 10.5 10.3093 10.8886 11.4814 11.7378C12.6718 12.6004 13.3444 13.8477 13.6481 15.3079C14.0341 17.1647 12.4238 18.5 10.853 18.5H2.85303C1.28225 18.5 -0.328093 17.1647 0.0579895 15.3079C0.36163 13.8477 1.03422 12.6004 2.22465 11.7378ZM3.39814 13.3574C2.70199 13.8618 2.24376 14.6203 2.01611 15.7151C1.97728 15.9018 2.02921 16.0729 2.17131 16.2223C2.32344 16.3824 2.57019 16.5 2.85303 16.5H10.853C11.1359 16.5 11.3826 16.3824 11.5347 16.2223C11.6768 16.0729 11.7288 15.9018 11.6899 15.7151C11.4623 14.6203 11.0041 13.8618 10.3079 13.3574C9.59342 12.8397 8.50487 12.5 6.85303 12.5C5.20118 12.5 4.11263 12.8397 3.39814 13.3574Z" fill="#0F0F0F"/>
<path d="M20.853 4.5C20.853 6.70914 19.0622 8.5 16.853 8.5C14.6439 8.5 12.853 6.70914 12.853 4.5C12.853 2.29086 14.6439 0.5 16.853 0.5C19.0622 0.5 20.853 2.29086 20.853 4.5ZM14.8302 4.5C14.8302 5.61719 15.7358 6.52284 16.853 6.52284C17.9702 6.52284 18.8759 5.61719 18.8759 4.5C18.8759 3.38281 17.9702 2.47716 16.853 2.47716C15.7358 2.47716 14.8302 3.38281 14.8302 4.5Z" fill="#0F0F0F"/>
<path d="M14.3891 10.7689C13.7877 10.9165 13.5778 11.6168 13.9177 12.1344L13.9605 12.1995C14.2123 12.5829 14.6921 12.739 15.1421 12.6501C15.6317 12.5534 16.1981 12.5 16.853 12.5C18.5049 12.5 19.5934 12.8397 20.3079 13.3574C21.0041 13.8618 21.4623 14.6203 21.69 15.7151C21.7288 15.9018 21.6769 16.0729 21.5348 16.2223C21.3826 16.3824 21.1359 16.5 20.853 16.5H15.8531C15.3008 16.5 14.8531 16.9477 14.8531 17.5C14.8531 18.0523 15.3008 18.5 15.8531 18.5H20.853C22.4238 18.5 24.0342 17.1647 23.6481 15.3079C23.3444 13.8477 22.6718 12.6004 21.4814 11.7378C20.3093 10.8886 18.7555 10.5 16.853 10.5C15.9524 10.5 15.1299 10.5871 14.3891 10.7689Z" fill="#0F0F0F"/>
</g>
</svg>
