<svg width="129" height="42" viewBox="0 0 129 42" fill="none" xmlns="http://www.w3.org/2000/svg">
<g opacity="0.7" clip-path="url(#clip0_19_584)">
<path fill-rule="evenodd" clip-rule="evenodd" d="M16.2726 7.75376C16.2726 6.60522 17.2117 5.67273 18.3683 5.67273H109.303C110.459 5.67273 111.398 6.60522 111.398 7.75376C111.398 8.90229 110.459 9.83478 109.303 9.83478H20.4645V39.7779C20.4645 40.927 19.5254 41.859 18.3688 41.859C17.2122 41.859 16.2732 40.927 16.2732 39.7779V7.75376H16.2726Z" fill="white"/>
<path fill-rule="evenodd" clip-rule="evenodd" d="M2.09565 9.83478C0.938479 9.83478 0 8.90229 0 7.75376C0 6.60522 0.938479 5.67273 2.09565 5.67273H9.2591C10.4157 5.67273 11.3548 6.60522 11.3548 7.75376C11.3548 8.90229 10.4157 9.83478 9.2591 9.83478H2.09565Z" fill="white"/>
<path fill-rule="evenodd" clip-rule="evenodd" d="M32.0622 25.246H30.6051V31.784C30.6051 32.6477 30.4135 33.279 30.0319 33.6865C29.6497 34.0945 29.1481 34.2983 28.5365 34.2983C27.872 34.2983 27.3568 34.085 26.9933 33.658C26.6303 33.2315 26.4482 32.6091 26.4482 31.7835V16.103C26.4482 15.2159 26.6489 14.57 27.0508 14.172C27.4515 13.7729 28.102 13.5742 28.9953 13.5742H35.7558C36.6875 13.5742 37.4856 13.6123 38.1496 13.6929C38.813 13.7735 39.4105 13.9302 39.9415 14.172C40.5863 14.4429 41.155 14.8269 41.6516 15.325C42.1442 15.8282 42.5213 16.4114 42.7749 17.0713C43.0325 17.7357 43.1616 18.4376 43.1616 19.1831C43.1616 20.7016 42.7315 21.9162 41.8663 22.8269C41.0017 23.7331 39.6923 24.3779 37.9394 24.7579C38.6749 25.1464 39.3817 25.7206 40.0559 26.4796C40.7244 27.2391 41.3263 28.0502 41.8528 28.9048C42.3781 29.764 42.789 30.5319 43.0849 31.2243C43.3769 31.9122 43.5251 32.3868 43.5251 32.6477C43.5251 32.9085 43.4383 33.1788 43.2664 33.4447C43.0945 33.7106 42.8606 33.9193 42.5596 34.071C42.2637 34.2233 41.9148 34.2988 41.5231 34.2988C41.0592 34.2988 40.6674 34.1897 40.3473 33.972C40.0322 33.7537 39.76 33.4783 39.53 33.1458C39.3006 32.8145 38.9906 32.3202 38.5988 31.6754L36.9316 28.9239C36.3341 27.9181 35.7992 27.1496 35.3302 26.6229C34.8573 26.0917 34.3793 25.7307 33.8918 25.5359C33.4099 25.3417 32.7977 25.2465 32.0622 25.2465V25.246ZM34.4413 16.6773H30.6046V22.2856H34.3264C35.3246 22.2856 36.1656 22.2006 36.8487 22.0299C37.5279 21.8586 38.0482 21.5642 38.4066 21.1517C38.7651 20.7386 38.9466 20.1694 38.9466 19.4484C38.9466 18.8787 38.8034 18.3805 38.512 17.9484C38.2251 17.5169 37.8238 17.1945 37.3075 16.9807C36.825 16.7764 35.8691 16.6767 34.4408 16.6767L34.4413 16.6773Z" fill="white"/>
<path fill-rule="evenodd" clip-rule="evenodd" d="M60.229 31.6469L59.2499 29.089H50.9073L49.9277 31.6984C49.5455 32.7188 49.2208 33.4072 48.9486 33.7626C48.6814 34.1186 48.2367 34.2983 47.6201 34.2983C47.0998 34.2983 46.6359 34.1091 46.2346 33.729C45.8327 33.3496 45.6321 32.9175 45.6321 32.4383C45.6321 32.159 45.6794 31.8691 45.7702 31.5747C45.866 31.2758 46.0193 30.8678 46.2341 30.3366L51.48 17.1088C51.6333 16.7293 51.8097 16.2737 52.0199 15.7426C52.2302 15.2063 52.4545 14.7653 52.6935 14.4138C52.9325 14.0628 53.2431 13.778 53.6303 13.5602C54.017 13.3419 54.4949 13.2328 55.0637 13.2328C55.6324 13.2328 56.129 13.3419 56.5156 13.5602C56.9023 13.778 57.2134 14.0584 57.4524 14.3998C57.6914 14.7418 57.8921 15.1112 58.0549 15.5052C58.2167 15.8993 58.427 16.426 58.6761 17.0808L64.037 30.228C64.4575 31.2288 64.6677 31.9553 64.6677 32.4104C64.6677 32.8654 64.4721 33.3171 64.0753 33.71C63.6785 34.1041 63.196 34.2983 62.6369 34.2983C62.3122 34.2983 62.0298 34.2412 61.7959 34.1225C61.5665 34.0089 61.3703 33.8527 61.2086 33.6529C61.0508 33.4542 60.8839 33.1453 60.7024 32.7372C60.5158 32.3242 60.3631 31.9587 60.2295 31.6458L60.229 31.6469ZM52.0013 25.9865H58.131L55.04 17.5891L52.0013 25.9865Z" fill="white"/>
<path fill-rule="evenodd" clip-rule="evenodd" d="M69.2975 15.9418L73.9414 29.6017L78.6 15.8467C78.8441 15.1213 79.0256 14.6181 79.1451 14.3382C79.2696 14.0539 79.4697 13.802 79.7476 13.5742C80.0289 13.3464 80.411 13.2328 80.8935 13.2328C81.2469 13.2328 81.5767 13.3229 81.8827 13.4987C82.1837 13.6738 82.4227 13.9067 82.5946 14.2005C82.7671 14.4899 82.8533 14.7838 82.8533 15.0832C82.8533 15.2825 82.8246 15.5058 82.7671 15.7431C82.7141 15.9754 82.6425 16.2077 82.5608 16.4355C82.4746 16.6633 82.3889 16.8961 82.3077 17.1379L77.3431 30.4513C77.1616 30.959 76.9846 31.4432 76.8076 31.9032C76.6312 32.3589 76.4254 32.7619 76.1915 33.1134C75.9627 33.4598 75.6516 33.7442 75.2649 33.9675C74.8777 34.1903 74.4048 34.2988 73.8462 34.2988C73.2876 34.2988 72.8085 34.1897 72.4218 33.972C72.0346 33.7537 71.7246 33.4688 71.4856 33.1134C71.2517 32.7529 71.0415 32.3488 70.8639 31.8937C70.6875 31.4426 70.5105 30.9584 70.3341 30.4508L65.4512 17.2465C65.3649 17.0092 65.2792 16.7719 65.1936 16.5396C65.1028 16.3073 65.0307 16.0554 64.9687 15.7896C64.9067 15.5187 64.8779 15.2914 64.8779 15.1062C64.8779 14.6366 65.069 14.205 65.4512 13.816C65.8333 13.427 66.3158 13.2328 66.8941 13.2328C67.6009 13.2328 68.1026 13.4455 68.394 13.8776C68.6905 14.3091 68.9915 14.997 69.297 15.9413L69.2975 15.9418Z" fill="white"/>
<path fill-rule="evenodd" clip-rule="evenodd" d="M99.4997 16.763H90.1352V21.773H98.7596C99.3942 21.773 99.8672 21.9157 100.178 22.1956C100.493 22.476 100.646 22.8504 100.646 23.3105C100.646 23.7706 100.493 24.1507 100.188 24.44C99.8773 24.73 99.4044 24.8772 98.7596 24.8772H90.1352V30.6842H99.8198C100.474 30.6842 100.967 30.8354 101.297 31.1343C101.63 31.4331 101.798 31.8367 101.798 32.3348C101.798 32.833 101.631 33.2074 101.297 33.5063C100.967 33.8052 100.474 33.9575 99.8198 33.9575H88.5248C87.6218 33.9575 86.9719 33.7582 86.5751 33.3597C86.1783 32.9612 85.9777 32.3153 85.9777 31.4287V16.1036C85.9777 15.5103 86.0684 15.0262 86.2454 14.6517C86.4218 14.2762 86.6991 14.0019 87.0768 13.8306C87.4544 13.6599 87.9364 13.5748 88.5248 13.5748H99.4997C100.164 13.5748 100.656 13.722 100.976 14.0114C101.297 14.3058 101.458 14.6898 101.458 15.1599C101.458 15.6301 101.296 16.0325 100.976 16.327C100.656 16.6163 100.164 16.7635 99.4997 16.7635V16.763Z" fill="white"/>
<path fill-rule="evenodd" clip-rule="evenodd" d="M109.17 15.7331V30.5695H117.598C118.268 30.5695 118.783 30.7313 119.142 31.0537C119.505 31.3811 119.682 31.7891 119.682 32.2778C119.682 32.7664 119.505 33.184 119.152 33.4924C118.798 33.8002 118.277 33.9569 117.599 33.9569H107.561C106.658 33.9569 106.008 33.7577 105.611 33.3591C105.214 32.9606 105.014 32.3147 105.014 31.4281V15.7326C105.014 14.9025 105.205 14.2756 105.583 13.8581C105.96 13.4411 106.457 13.2323 107.073 13.2323C107.69 13.2323 108.201 13.436 108.588 13.8491C108.975 14.2622 109.171 14.893 109.171 15.7326L109.17 15.7331Z" fill="white"/>
<path fill-rule="evenodd" clip-rule="evenodd" d="M128.009 8.64869C127.186 8.85914 125.522 8.89776 122.989 8.97388L119.607 15.5052H118.913L119.601 8.98172C117.949 8.95597 116.566 8.90392 116.566 8.90392L114.278 11.093L114.898 7.75258L114.278 4.41163L116.566 6.60069C116.566 6.60069 117.948 6.54863 119.601 6.52288L118.913 -0.000610352H119.607L122.989 6.53016C125.522 6.60628 127.186 6.6449 128.009 6.85536C129.331 7.19398 129.331 8.3095 128.009 8.64813V8.64869Z" fill="white"/>
<path fill-rule="evenodd" clip-rule="evenodd" d="M29.3448 40.8526C29.3448 41.0709 29.2884 41.2673 29.1746 41.4425C29.0613 41.6172 28.895 41.7543 28.6757 41.8522C28.457 41.9508 28.1972 42 27.8973 42C27.5366 42 27.2401 41.9317 27.0068 41.798C26.8411 41.7006 26.7069 41.5713 26.6026 41.4095C26.4995 41.2472 26.4476 41.0899 26.4476 40.936C26.4476 40.8476 26.4792 40.772 26.5412 40.7071C26.6026 40.6438 26.6815 40.6125 26.7779 40.6125C26.8563 40.6125 26.9211 40.6371 26.9746 40.6869C27.0293 40.7362 27.075 40.8089 27.1133 40.9069C27.1595 41.0222 27.2097 41.1196 27.2632 41.1951C27.3179 41.2729 27.3929 41.3368 27.491 41.3877C27.5896 41.4375 27.7175 41.4627 27.8776 41.4627C28.0952 41.4627 28.2744 41.4129 28.4108 41.3116C28.5478 41.2103 28.616 41.0832 28.616 40.9321C28.616 40.8112 28.5799 40.7138 28.5055 40.6393C28.4322 40.5643 28.3359 40.5067 28.2186 40.4675C28.1025 40.4283 27.9458 40.3858 27.7508 40.341C27.4887 40.28 27.2689 40.2084 27.0936 40.1272C26.9172 40.0455 26.7762 39.9341 26.6731 39.7936C26.5694 39.6526 26.5181 39.4779 26.5181 39.2686C26.5181 39.0593 26.5716 38.8919 26.6815 38.7374C26.7915 38.5824 26.9498 38.4643 27.1573 38.3809C27.3641 38.2969 27.6082 38.2561 27.8878 38.2561C28.1115 38.2561 28.3049 38.2841 28.4689 38.3389C28.6318 38.3943 28.7676 38.4676 28.8753 38.5589C28.9818 38.6501 29.0613 38.7464 29.1114 38.8471C29.1605 38.9468 29.1858 39.0453 29.1858 39.141C29.1858 39.2277 29.1543 39.3067 29.0923 39.3766C29.0308 39.4466 28.9525 39.4813 28.8595 39.4813C28.7749 39.4813 28.7107 39.46 28.6667 39.4192C28.6228 39.3766 28.5754 39.3078 28.5241 39.2126C28.457 39.0761 28.3781 38.9692 28.2846 38.8925C28.1921 38.8163 28.0433 38.7777 27.837 38.7777C27.6465 38.7777 27.4921 38.8186 27.376 38.9025C27.2587 38.9859 27.2001 39.0856 27.2001 39.2026C27.2001 39.2753 27.2198 39.338 27.2593 39.3912C27.2993 39.4432 27.3545 39.4891 27.4239 39.5266C27.4932 39.5647 27.5637 39.5938 27.6347 39.6162C27.7068 39.6369 27.8246 39.6682 27.9881 39.7097C28.1938 39.7578 28.3804 39.8104 28.5472 39.8686C28.7135 39.9257 28.8556 39.9957 28.9728 40.0779C29.0906 40.1597 29.1808 40.2649 29.2462 40.3903C29.3115 40.5168 29.3442 40.6713 29.3442 40.8537L29.3448 40.8526ZM32.6895 38.7005V41.3373H34.1877C34.3066 41.3373 34.3979 41.3659 34.4616 41.4229C34.5264 41.4812 34.558 41.5539 34.558 41.6412C34.558 41.7286 34.5264 41.8019 34.4639 41.8567C34.4013 41.9116 34.3083 41.939 34.1877 41.939H32.4037C32.2431 41.939 32.1281 41.9037 32.0571 41.8332C31.9866 41.7627 31.9511 41.6474 31.9511 41.4901V38.7005C31.9511 38.5533 31.9849 38.4419 32.0526 38.3675C32.1197 38.2936 32.2076 38.2566 32.3175 38.2566C32.4274 38.2566 32.5176 38.293 32.5864 38.3663C32.6557 38.4391 32.6901 38.5516 32.6901 38.7005H32.6895ZM38.3897 38.2561C38.7685 38.2561 39.0931 38.3316 39.3637 38.4844C39.6348 38.6367 39.84 38.8527 39.9798 39.1337C40.119 39.4147 40.1889 39.7444 40.1889 40.1227C40.1889 40.4026 40.1506 40.6567 40.0733 40.8856C39.9972 41.1145 39.8834 41.3132 39.7301 41.4812C39.5779 41.6491 39.3907 41.7772 39.1687 41.8662C38.946 41.9552 38.6924 42 38.4055 42C38.1186 42 37.8649 41.9541 37.64 41.8618C37.414 41.7705 37.2263 41.6418 37.0747 41.4761C36.9237 41.3093 36.8098 41.1095 36.7326 40.8755C36.6559 40.6421 36.617 40.3892 36.617 40.1177C36.617 39.8462 36.657 39.5843 36.7382 39.352C36.8188 39.1203 36.9349 38.9227 37.0882 38.7587C37.2399 38.5964 37.4259 38.4716 37.6451 38.3854C37.8627 38.2986 38.1118 38.2555 38.3903 38.2555L38.3897 38.2561ZM39.4398 40.1182C39.4398 39.8535 39.3964 39.6235 39.3107 39.4281C39.2239 39.2345 39.101 39.0873 38.941 38.9876C38.7809 38.888 38.5971 38.8376 38.3897 38.8376C38.2432 38.8376 38.1062 38.8662 37.9811 38.921C37.8559 38.9764 37.7477 39.0565 37.6575 39.1617C37.5679 39.2669 37.4963 39.4024 37.4433 39.5652C37.392 39.7298 37.365 39.9134 37.365 40.1182C37.365 40.3231 37.3915 40.51 37.4433 40.6768C37.4958 40.8436 37.5696 40.9813 37.6649 41.091C37.7595 41.2007 37.8695 41.2825 37.9929 41.3368C38.1163 41.3916 38.2516 41.4185 38.3993 41.4185C38.5887 41.4185 38.7617 41.3715 38.9207 41.2774C39.0785 41.1839 39.2042 41.039 39.2983 40.8425C39.3919 40.6466 39.4387 40.4048 39.4387 40.1182H39.4398ZM46.1467 40.467V41.1604C46.1467 41.2534 46.1377 41.3267 46.1202 41.3815C46.101 41.4369 46.0678 41.4862 46.0187 41.531C45.9691 41.5752 45.906 41.6183 45.8299 41.6597C45.6101 41.7778 45.3976 41.8634 45.1941 41.9183C44.9901 41.9726 44.768 41.9995 44.5273 41.9995C44.2466 41.9995 43.9918 41.9564 43.7613 41.8707C43.5308 41.7851 43.3346 41.6608 43.1723 41.4968C43.0088 41.3345 42.8843 41.1364 42.798 40.9052C42.7101 40.6729 42.6667 40.4132 42.6667 40.1266C42.6667 39.8401 42.7095 39.5876 42.793 39.3531C42.8781 39.1197 43.0021 38.9216 43.1667 38.7576C43.3307 38.5953 43.5302 38.4704 43.7658 38.3842C44.0014 38.2975 44.268 38.2544 44.5668 38.2544C44.8119 38.2544 45.0295 38.2869 45.2178 38.3523C45.4072 38.4167 45.561 38.4984 45.6783 38.5975C45.7961 38.6966 45.8846 38.8007 45.9443 38.9115C46.0035 39.0218 46.0339 39.1197 46.0339 39.2059C46.0339 39.2977 45.999 39.3755 45.9302 39.441C45.8615 39.507 45.7786 39.5384 45.6822 39.5384C45.6292 39.5384 45.5785 39.5266 45.5289 39.5009C45.4799 39.4768 45.4387 39.4421 45.406 39.3985C45.3147 39.2568 45.2375 39.1499 45.1749 39.0772C45.1112 39.0055 45.0261 38.944 44.9207 38.8947C44.8131 38.8455 44.6772 38.8208 44.5115 38.8208C44.3458 38.8208 44.188 38.8499 44.0533 38.9081C43.9191 38.9664 43.8041 39.052 43.7094 39.1628C43.6142 39.2731 43.542 39.4096 43.4908 39.5703C43.4406 39.7326 43.4147 39.9112 43.4147 40.1065C43.4147 40.5313 43.5127 40.8576 43.7094 41.0871C43.9056 41.3149 44.1807 41.4302 44.5307 41.4302C44.7015 41.4302 44.8621 41.4078 45.012 41.3636C45.1614 41.3188 45.3142 41.2556 45.468 41.1728V40.5851H44.8959C44.759 40.5851 44.6541 40.5649 44.5837 40.5235C44.5132 40.4821 44.4783 40.4127 44.4783 40.3125C44.4783 40.2324 44.5081 40.1647 44.5668 40.1127C44.6254 40.06 44.7049 40.0337 44.8069 40.0337H45.645C45.7476 40.0337 45.835 40.0427 45.906 40.0606C45.977 40.0785 46.0351 40.1194 46.0785 40.1821C46.1224 40.2447 46.1439 40.3388 46.1439 40.4636L46.1467 40.467ZM50.9845 41.5282L50.8103 41.0742H49.3279L49.1538 41.5377C49.0855 41.7196 49.0281 41.8416 48.979 41.9049C48.9317 41.9681 48.8528 42.0006 48.7434 42.0006C48.6504 42.0006 48.5681 41.9664 48.4971 41.8993C48.4261 41.831 48.39 41.7549 48.39 41.6698C48.39 41.62 48.3985 41.5685 48.4142 41.5164C48.4312 41.4632 48.4582 41.391 48.4965 41.2965L49.4288 38.9456C49.4564 38.8785 49.4874 38.7973 49.5246 38.7027C49.5624 38.607 49.6024 38.5287 49.6441 38.466C49.687 38.4038 49.7422 38.3529 49.811 38.3148C49.8792 38.2762 49.9643 38.2566 50.0652 38.2566C50.1661 38.2566 50.2546 38.2762 50.3239 38.3148C50.3927 38.3529 50.4473 38.4027 50.4902 38.4643C50.533 38.5247 50.5685 38.5908 50.5973 38.6607C50.6266 38.7307 50.6638 38.8242 50.7072 38.94L51.6603 41.2769C51.7347 41.4543 51.7719 41.5836 51.7719 41.6647C51.7719 41.7459 51.7381 41.8259 51.6671 41.8959C51.5966 41.9659 51.5104 42.0006 51.4117 42.0006C51.3537 42.0006 51.3041 41.9899 51.2624 41.9692C51.2218 41.9485 51.1868 41.9205 51.1575 41.8853C51.1299 41.85 51.1006 41.7952 51.0679 41.723C51.0347 41.6496 51.007 41.5841 50.9834 41.5287L50.9845 41.5282ZM49.5224 40.5224H50.6119L50.0624 39.0302L49.5224 40.5224ZM55.2744 38.696L56.6937 40.8313V38.6759C56.6937 38.5359 56.7241 38.4318 56.7845 38.3619C56.8448 38.2919 56.9265 38.2566 57.0291 38.2566C57.1317 38.2566 57.2185 38.2913 57.2799 38.3607C57.3408 38.4307 57.3712 38.5365 57.3712 38.6764V41.5237C57.3712 41.8416 57.2388 42.0006 56.9738 42.0006C56.9073 42.0006 56.8482 41.9911 56.7952 41.9715C56.7422 41.9524 56.6926 41.9228 56.6464 41.8819C56.5996 41.8411 56.5567 41.7929 56.5173 41.7369C56.4773 41.6821 56.4372 41.6261 56.3978 41.5685L55.0123 39.46V41.5802C55.0123 41.719 54.9802 41.8231 54.916 41.8937C54.85 41.9642 54.7672 42.0006 54.6657 42.0006C54.5642 42.0006 54.4774 41.9642 54.4149 41.8931C54.3506 41.822 54.3191 41.7168 54.3191 41.5802V38.7878C54.3191 38.6691 54.3326 38.5762 54.3596 38.5091C54.3912 38.4352 54.4436 38.3747 54.5163 38.3277C54.5896 38.2813 54.6685 38.2578 54.7525 38.2578C54.8196 38.2578 54.8771 38.2684 54.9238 38.2897C54.9712 38.3109 55.0123 38.3406 55.0479 38.3764C55.0834 38.4122 55.1206 38.4587 55.1578 38.5169C55.1955 38.5746 55.2344 38.6339 55.2744 38.6971V38.696ZM62.1933 38.7005V39.7393H63.7873V38.7005C63.7873 38.5533 63.8216 38.4419 63.8887 38.3675C63.9558 38.2936 64.0437 38.2566 64.1536 38.2566C64.2635 38.2566 64.3543 38.293 64.4231 38.3663C64.4918 38.4391 64.5268 38.551 64.5268 38.7005V41.5534C64.5268 41.7039 64.4918 41.8148 64.4219 41.8886C64.3526 41.9631 64.2624 42.0006 64.1536 42.0006C64.0449 42.0006 63.953 41.9631 63.8876 41.8881C63.8211 41.8131 63.7878 41.7011 63.7878 41.5528V40.3354H62.1938V41.5528C62.1938 41.7034 62.1589 41.8142 62.089 41.8881C62.0191 41.9625 61.93 42 61.8207 42C61.7113 42 61.6206 41.9625 61.5535 41.8875C61.4881 41.8125 61.4543 41.7006 61.4543 41.5522V38.6994C61.4543 38.551 61.4876 38.4408 61.553 38.3663C61.6183 38.2925 61.7074 38.2555 61.8201 38.2555C61.9329 38.2555 62.0208 38.2919 62.089 38.3652C62.1577 38.438 62.1933 38.5505 62.1933 38.6994V38.7005ZM69.718 38.8835H68.0535V39.774H69.5861C69.6994 39.774 69.7828 39.7992 69.8381 39.849C69.895 39.8983 69.9215 39.9654 69.9215 40.0466C69.9215 40.1278 69.895 40.1966 69.8403 40.2481C69.7851 40.299 69.7005 40.3259 69.5861 40.3259H68.0535V41.3575H69.7744C69.891 41.3575 69.9784 41.3849 70.037 41.4381C70.0962 41.4907 70.1255 41.5629 70.1255 41.6508C70.1255 41.7386 70.0962 41.8064 70.037 41.8595C69.9784 41.9121 69.891 41.9396 69.7744 41.9396H67.7672C67.6066 41.9396 67.4916 41.9043 67.4206 41.8338C67.3501 41.7633 67.3146 41.648 67.3146 41.4907V38.7671C67.3146 38.6619 67.3304 38.5757 67.3619 38.5091C67.3935 38.4425 67.4425 38.3943 67.509 38.3635C67.5761 38.3328 67.6624 38.3176 67.7666 38.3176H69.7174C69.8352 38.3176 69.9226 38.3439 69.9795 38.3954C70.0365 38.4475 70.0652 38.5163 70.0652 38.5997C70.0652 38.6831 70.0365 38.7553 69.9795 38.8068C69.9226 38.8583 69.8358 38.8846 69.7174 38.8846L69.718 38.8835ZM73.7002 40.3908H73.4409V41.5528C73.4409 41.7067 73.4071 41.8181 73.3389 41.8914C73.2713 41.9636 73.1816 42.0006 73.0734 42.0006C72.9556 42.0006 72.8637 41.9625 72.7989 41.8858C72.7347 41.8103 72.7025 41.7 72.7025 41.5528V38.766C72.7025 38.6081 72.738 38.4934 72.8096 38.4229C72.8806 38.3518 72.9962 38.3165 73.1546 38.3165H74.3563C74.522 38.3165 74.6635 38.3232 74.7818 38.3378C74.8996 38.3512 75.0062 38.3792 75.1003 38.4223C75.2147 38.471 75.3162 38.5387 75.4041 38.6277C75.4915 38.7173 75.5591 38.8208 75.6042 38.9378C75.6504 39.0559 75.6724 39.1807 75.6724 39.3128C75.6724 39.5826 75.5963 39.7987 75.443 39.9598C75.2891 40.1216 75.0563 40.2358 74.7452 40.303C74.876 40.3724 75.0017 40.4742 75.1212 40.6091C75.2401 40.7446 75.3472 40.889 75.4402 41.0401C75.5338 41.1923 75.607 41.3295 75.6594 41.4526C75.7113 41.5746 75.7378 41.6591 75.7378 41.7062C75.7378 41.7532 75.7226 41.8002 75.6916 41.8478C75.6606 41.8953 75.6194 41.9317 75.5659 41.9586C75.5135 41.9855 75.4515 41.9995 75.3816 41.9995C75.2998 41.9995 75.2299 41.9799 75.173 41.9412C75.1172 41.9021 75.0687 41.8534 75.0282 41.794C74.987 41.7353 74.9318 41.648 74.8624 41.5327L74.5654 41.0435C74.4594 40.8649 74.3642 40.7283 74.2813 40.6349C74.1973 40.5408 74.1122 40.4759 74.0254 40.4412C73.9403 40.4071 73.831 40.3897 73.7008 40.3897L73.7002 40.3908ZM74.1229 38.8678H73.4409V39.8647H74.1026C74.2802 39.8647 74.4296 39.849 74.5513 39.8188C74.6714 39.788 74.7644 39.736 74.8281 39.6626C74.8918 39.5899 74.9239 39.4886 74.9239 39.3604C74.9239 39.2591 74.8985 39.1712 74.8472 39.094C74.7959 39.0167 74.7249 38.9596 74.633 38.9221C74.5479 38.8858 74.3777 38.8678 74.1235 38.8678H74.1229ZM80.7701 38.8835H79.1056V39.774H80.6382C80.7515 39.774 80.8349 39.7992 80.8901 39.849C80.9471 39.8983 80.9735 39.9654 80.9735 40.0466C80.9735 40.1278 80.9471 40.1966 80.8924 40.2481C80.8371 40.299 80.7526 40.3259 80.6382 40.3259H79.1056V41.3575H80.8264C80.9431 41.3575 81.0305 41.3849 81.0891 41.4381C81.1483 41.4907 81.1776 41.5629 81.1776 41.6508C81.1776 41.7386 81.1483 41.8064 81.0891 41.8595C81.0305 41.9121 80.9431 41.9396 80.8264 41.9396H78.8193C78.6586 41.9396 78.5436 41.9043 78.4726 41.8338C78.4022 41.7633 78.3667 41.648 78.3667 41.4907V38.7671C78.3667 38.6619 78.3824 38.5757 78.414 38.5091C78.4456 38.4425 78.4946 38.3943 78.5611 38.3635C78.6282 38.3328 78.7144 38.3176 78.8187 38.3176H80.7695C80.8873 38.3176 80.9747 38.3439 81.0316 38.3954C81.0885 38.4475 81.1173 38.5163 81.1173 38.5997C81.1173 38.6831 81.0885 38.7553 81.0316 38.8068C80.9747 38.8583 80.8879 38.8846 80.7695 38.8846L80.7701 38.8835Z" fill="white"/>
<path fill-rule="evenodd" clip-rule="evenodd" d="M86.9246 40.8224C86.5391 40.8224 86.2262 40.5118 86.2262 40.1289C86.2262 39.7461 86.5391 39.4354 86.9246 39.4354H109.203C109.589 39.4354 109.902 39.7461 109.902 40.1289C109.902 40.5118 109.589 40.8224 109.203 40.8224H86.9246Z" fill="white"/>
</g>
<defs>
<clipPath id="clip0_19_584">
<rect width="129" height="42" fill="white"/>
</clipPath>
</defs>
</svg>
