<svg width="129" height="42" viewBox="0 0 129 42" fill="none" xmlns="http://www.w3.org/2000/svg">
<g opacity="0.7" clip-path="url(#clip0_19_556)">
<path d="M0.182007 5.37226H7.91777V7.67235H5.30126V21.4729H2.79851V7.67235H0.182007V5.37226Z" fill="white"/>
<path d="M14.253 21.4729C14.1165 21.0589 14.0255 20.8059 14.0255 19.4949V16.9647C14.0255 15.4697 13.525 14.9177 12.3873 14.9177H11.5228V21.4729H9.02001V5.37226H12.7969C15.3906 5.37226 16.5055 6.59131 16.5055 9.07541V10.3405C16.5055 11.9965 15.9822 13.0776 14.8673 13.6066C16.1187 14.1356 16.5282 15.3547 16.5282 17.0337V19.5179C16.5282 20.2999 16.551 20.8749 16.8013 21.4729H14.253ZM11.5228 7.67235V12.6176H12.5011C13.4339 12.6176 14.0027 12.2035 14.0027 10.9155V9.32842C14.0027 8.17838 13.616 7.67235 12.7286 7.67235H11.5228Z" fill="white"/>
<path d="M26.274 21.4729H23.7485L23.3162 18.5518H20.2447L19.8124 21.4729H17.5144L20.0627 5.37226H23.7258L26.274 21.4729ZM20.5632 16.3667H22.975L21.7691 8.22438L20.5632 16.3667Z" fill="white"/>
<path d="M30.6387 18.5058L32.5499 5.37226H34.8479L32.3906 21.4729H28.6593L26.202 5.37226H28.7275L30.6387 18.5058Z" fill="white"/>
<path d="M38.5188 12.1575H41.9544V14.4576H38.5188V19.1728H42.8417V21.4729H36.0161V5.37226H42.8417V7.67235H38.5188V12.1575Z" fill="white"/>
<path d="M44.3926 5.37226H46.8954V19.1728H51.0135V21.4729H44.3926V5.37226Z" fill="white"/>
<path d="M60.1208 12.9755L58.8597 24.8645H54.0988L51.6395 2.55272H55.0131L56.8733 20.1471L58.5444 2.55272H61.8865L63.6206 20.2746L65.4178 2.55272H68.4446L65.9853 24.8645H61.382L60.1208 12.9755Z" fill="white"/>
<path d="M69.9099 7.90754C69.9099 4.33766 71.7702 2.29773 75.1753 2.29773C78.5805 2.29773 80.4407 4.33766 80.4407 7.90754V19.5096C80.4407 23.0795 78.5805 25.1195 75.1753 25.1195C71.7702 25.1195 69.9099 23.0795 69.9099 19.5096V7.90754ZM73.3782 19.7328C73.3782 21.3265 74.0718 21.9321 75.1753 21.9321C76.2788 21.9321 76.9725 21.3265 76.9725 19.7328V7.68442C76.9725 6.09072 76.2788 5.48512 75.1753 5.48512C74.0718 5.48512 73.3782 6.09072 73.3782 7.68442V19.7328Z" fill="white"/>
<path d="M89.9463 24.8645C89.7571 24.2907 89.631 23.9401 89.631 22.1233V18.6172C89.631 16.5454 88.9373 15.7804 87.3609 15.7804H86.1628V24.8645H82.6945V2.55272H87.9284C91.5227 2.55272 93.0677 4.24204 93.0677 7.68442V9.43749C93.0677 11.7324 92.3425 13.2305 90.7976 13.9636C92.5317 14.6967 93.0992 16.386 93.0992 18.7128V22.1552C93.0992 23.2389 93.1307 24.0357 93.4776 24.8645H89.9463ZM86.1628 5.74011V12.593H87.5185C88.8112 12.593 89.5995 12.0193 89.5995 10.2343V8.03503C89.5995 6.44134 89.0635 5.74011 87.8338 5.74011H86.1628Z" fill="white"/>
<path d="M95.3801 2.55272H98.8484V21.6771H104.555V24.8645H95.3801V2.55272Z" fill="white"/>
<path d="M106.064 2.55272H111.55C115.019 2.55272 116.721 4.49703 116.721 8.06691V19.3503C116.721 22.9202 115.019 24.8645 111.55 24.8645H106.064V2.55272ZM109.533 5.74011V21.6771H111.487C112.591 21.6771 113.253 21.1033 113.253 19.5096V7.90754C113.253 6.31384 112.591 5.74011 111.487 5.74011H109.533Z" fill="white"/>
<path d="M4.75835 32.3267C5.931 32.3267 6.88162 31.3657 6.88162 30.1802C6.88162 28.9947 5.931 28.0337 4.75835 28.0337C3.58569 28.0337 2.63507 28.9947 2.63507 30.1802C2.63507 31.3657 3.58569 32.3267 4.75835 32.3267Z" fill="white"/>
<path d="M51.2625 28.7088L50.5867 28.0256L49.1312 29.497L47.6757 28.0256L46.9999 28.7088L48.4554 30.1802L46.9999 31.6516L47.6757 32.3348L49.1312 30.8634L50.5867 32.3348L51.2625 31.6516L49.811 30.1802L51.2625 28.7088Z" fill="white"/>
<path d="M8.22516 30.1802H9.42075" stroke="white" stroke-width="1.19" stroke-miterlimit="10"/>
<path d="M11.764 30.1802H43.4372" stroke="white" stroke-width="1.19" stroke-miterlimit="10"/>
<path d="M44.6127 30.1802H45.8043" stroke="white" stroke-width="1.19" stroke-miterlimit="10"/>
<path d="M72.1074 31.9427C76.5579 31.4778 77.8455 30.0549 81.7601 30.0306C80.1127 30.54 79.5289 31.2838 79.5289 31.2838C77.8375 32.929 73.7029 32.646 72.1074 31.9467V31.9427Z" fill="white"/>
<path d="M82.8038 29.7759C82.8038 29.7759 92.1086 27.3383 94.5838 26.1903C93.4161 26.7967 93.0363 27.9164 93.0363 27.9164C93.0363 27.9164 92.0206 27.1645 87.902 28.5187C86.4705 28.9876 86.1306 30.0427 86.1306 30.0427C86.1306 30.0427 86.1786 29.2302 82.8038 29.7759Z" fill="white"/>
<path d="M95.3595 26.1783C95.3595 26.1783 99.4541 24.6502 101.054 23.7771C99.9779 24.3552 98.9183 25.1717 98.7863 26.1783C98.7863 26.1783 98.7463 25.0666 95.3635 26.1783H95.3595Z" fill="white"/>
<path d="M97.3268 22.9848C98.5784 22.5967 100.15 22.051 101.213 21.4932C99.3821 22.2855 98.8503 21.3598 98.7863 21.0364C98.1345 21.4932 97.5227 21.9338 96.9989 22.3138C96.655 22.5644 96.9229 23.1061 97.3268 22.9807V22.9848Z" fill="white"/>
<path d="M113.193 16.6383L118.248 12.4788C118.248 12.4788 116.628 13.9663 116.588 14.7182C116.404 14.9325 113.189 16.6383 113.189 16.6383H113.193Z" fill="white"/>
<path d="M113.209 15.4175C113.209 15.4175 116.9 12.8951 117.892 11.9573C116.656 12.883 116.208 12.79 115.888 12.6566C113.977 14.6171 113.209 15.4216 113.209 15.4216V15.4175Z" fill="white"/>
<path d="M106.016 21.3638C106.016 21.3638 109.495 19.3144 110.466 18.6353C110.11 18.902 109.527 19.662 109.491 20.1633L106.016 21.3598V21.3638Z" fill="white"/>
<path d="M82.6518 26.3965C82.6518 26.3965 86.4385 25.8427 87.802 25.4223C86.7144 25.5759 86.1826 25.3051 86.1306 24.913C84.955 25.7538 82.6558 26.3965 82.6558 26.3965H82.6518Z" fill="white"/>
<path d="M78.6452 26.9584C79.6368 26.8412 80.8044 26.6957 81.3842 26.6027C80.9524 26.6027 80.5165 26.4046 80.4206 25.9963C79.8807 26.3319 79.165 26.5906 78.5252 26.7806C78.5652 26.8412 78.6052 26.9018 78.6452 26.9584Z" fill="white"/>
<path d="M60.8792 27.9448C60.8792 27.9448 69.0964 28.1065 75.5222 27.2657C75.5222 27.2657 73.6189 27.3384 73.339 26.534C72.0114 27.015 70.8958 27.6416 68.2967 27.6416C68.2967 27.6416 66.7732 27.8761 66.6852 26.4087C64.51 27.2657 60.8832 27.9488 60.8832 27.9488L60.8792 27.9448Z" fill="white"/>
<path d="M89.4175 25.1192C89.4175 25.1192 92.7763 24.3673 94.0359 23.9105C93.5121 24.0722 92.7444 24.0722 92.5084 23.6356C91.8966 24.1167 89.4175 25.1192 89.4175 25.1192Z" fill="white"/>
<path d="M58.9519 31.8456C58.9519 31.8456 61.0832 31.7607 61.3151 32.2498C61.2871 31.9749 63.8222 31.8537 63.8222 31.8537C63.8222 31.8537 66.0055 31.6192 66.0655 32.0477C66.1335 31.8052 70.0281 31.4252 70.0281 31.4252L58.9519 31.8456Z" fill="white"/>
<path d="M124.837 13.2629C124.589 11.6662 124.35 10.1544 124.106 8.57784C123.954 8.70316 123.83 8.80422 123.71 8.90528C122.81 9.69353 121.814 10.3241 120.695 10.7486C120.315 10.8901 119.971 10.886 119.615 10.6597C118.927 10.219 118.22 9.81076 117.52 9.38631C117.78 9.04272 118.072 8.92549 118.472 8.974C119.023 9.03867 119.583 9.05484 120.139 9.05888C120.307 9.05888 120.515 8.99825 120.643 8.88911C122.59 7.22366 124.526 5.54608 126.461 3.86447C126.993 3.40364 127.608 3.17323 128.304 3.18939C128.908 3.20152 129.16 3.58959 128.904 4.14339C128.772 4.4304 128.556 4.69719 128.324 4.91143C127.756 5.43694 127.165 5.93011 126.573 6.42732C126.409 6.56476 126.325 6.70624 126.309 6.93261C126.181 8.59401 126.025 10.2514 125.905 11.9128C125.877 12.2806 125.757 12.5515 125.453 12.7576C125.261 12.887 125.093 13.0527 124.845 13.2589L124.837 13.2629Z" fill="white"/>
<path d="M119.491 6.28994C119.943 5.89379 120.259 5.38849 120.987 5.49764C121.718 5.61082 122.466 5.61486 123.21 5.66741C123.27 5.67146 123.334 5.68358 123.458 5.69975C122.906 6.16867 122.402 6.6012 121.89 7.02564C121.842 7.06607 121.746 7.09032 121.686 7.07011C121.007 6.85586 120.331 6.63354 119.655 6.40716C119.607 6.39099 119.571 6.34249 119.495 6.28185L119.491 6.28994Z" fill="white"/>
<path d="M52.2958 39.5059V36.8477H52.7324V39.5059H52.2958ZM52.5213 36.4159C52.3534 36.4159 52.2238 36.285 52.2238 36.1152C52.2238 35.9454 52.3534 35.8144 52.5213 35.8144C52.6797 35.8144 52.8092 35.9454 52.8092 36.1152C52.8092 36.285 52.6797 36.4159 52.5213 36.4159Z" fill="white"/>
<path d="M53.5726 38.7783V37.2115H53.2319V36.8477H53.5726V36.1782H54.0093V36.8477H54.6954V37.2115H54.0093V38.7783C54.0093 39.0402 54.1052 39.1324 54.3739 39.1324H54.6954V39.5059H54.302C53.8365 39.5059 53.5726 39.3119 53.5726 38.7783Z" fill="white"/>
<path d="M55.0853 36.61L55.0229 35.6447H55.4452L55.3876 36.61H55.0853Z" fill="white"/>
<path d="M57.8788 38.7831C57.8788 39.2197 57.4998 39.5496 56.9192 39.5496C56.305 39.5496 55.8731 39.21 55.8443 38.7249H56.2954C56.3194 38.982 56.5449 39.176 56.9144 39.176C57.2598 39.176 57.4518 39.0014 57.4518 38.7831C57.4518 38.1913 55.8971 38.5357 55.8971 37.5462C55.8971 37.1387 56.2762 36.804 56.8616 36.804C57.4422 36.804 57.8261 37.1193 57.8548 37.6383H57.4182C57.399 37.3715 57.1975 37.1775 56.8472 37.1775C56.5257 37.1775 56.3338 37.3327 56.3338 37.5462C56.3338 38.1768 57.8596 37.8324 57.8788 38.7831Z" fill="white"/>
<path d="M59.8705 38.7783V37.2115H59.5298V36.8477H59.8705V36.1782H60.3071V36.8477H60.9933V37.2115H60.3071V38.7783C60.3071 39.0402 60.4031 39.1324 60.6718 39.1324H60.9933V39.5059H60.5998C60.1344 39.5059 59.8705 39.3119 59.8705 38.7783Z" fill="white"/>
<path d="M61.5223 39.5059V36.8477H61.959V39.5059H61.5223ZM61.7479 36.4159C61.5799 36.4159 61.4504 36.285 61.4504 36.1152C61.4504 35.9454 61.5799 35.8144 61.7479 35.8144C61.9062 35.8144 62.0358 35.9454 62.0358 36.1152C62.0358 36.285 61.9062 36.4159 61.7479 36.4159Z" fill="white"/>
<path d="M66.4987 39.5059V38.0022C66.4987 37.4589 66.2108 37.1824 65.7789 37.1824C65.3375 37.1824 65.0352 37.4686 65.0352 38.041V39.5059H64.6033V38.0022C64.6033 37.4589 64.3154 37.1824 63.8836 37.1824C63.4421 37.1824 63.1398 37.4686 63.1398 38.041V39.5059H62.7032V36.8477H63.1398V37.2309C63.3126 36.9495 63.6245 36.7991 63.9699 36.7991C64.4018 36.7991 64.7617 36.9932 64.9344 37.3909C65.088 37.0077 65.4622 36.7991 65.8653 36.7991C66.4651 36.7991 66.9305 37.1775 66.9305 37.9391V39.5059H66.4987Z" fill="white"/>
<path d="M68.7648 37.1775C68.3378 37.1775 67.9827 37.4637 67.9347 37.9827H69.5949C69.5997 37.4637 69.2159 37.1775 68.7648 37.1775ZM69.9932 38.6861C69.8589 39.1712 69.4366 39.5496 68.784 39.5496C68.0355 39.5496 67.4837 39.016 67.4837 38.1719C67.4837 37.3327 68.0163 36.804 68.784 36.804C69.547 36.804 70.046 37.3473 70.046 38.0749C70.046 38.1719 70.0412 38.2495 70.0316 38.3417H67.9299C67.9635 38.8801 68.3378 39.176 68.784 39.176C69.1775 39.176 69.427 38.9723 69.523 38.6861H69.9932Z" fill="white"/>
<path d="M71.9976 38.7783V37.2115H71.6569V36.8477H71.9976V36.1782H72.4342V36.8477H73.1204V37.2115H72.4342V38.7783C72.4342 39.0402 72.5302 39.1324 72.7989 39.1324H73.1204V39.5059H72.7269C72.2615 39.5059 71.9976 39.3119 71.9976 38.7783Z" fill="white"/>
<path d="M76.1446 38.1719C76.1446 39.016 75.5448 39.5496 74.7963 39.5496C74.0525 39.5496 73.4863 39.016 73.4863 38.1719C73.4863 37.3327 74.0717 36.804 74.8155 36.804C75.564 36.804 76.1446 37.3327 76.1446 38.1719ZM73.9326 38.1719C73.9326 38.8462 74.3404 39.1615 74.7963 39.1615C75.2521 39.1615 75.6983 38.8462 75.6983 38.1719C75.6983 37.5025 75.2617 37.1872 74.8107 37.1872C74.35 37.1872 73.9326 37.5025 73.9326 38.1719Z" fill="white"/>
<path d="M78.0939 38.7783V37.2115H77.7532V36.8477H78.0939V36.1782H78.5306V36.8477H79.2167V37.2115H78.5306V38.7783C78.5306 39.0402 78.6266 39.1324 78.8953 39.1324H79.2167V39.5059H78.8233C78.3578 39.5059 78.0939 39.3119 78.0939 38.7783Z" fill="white"/>
<path d="M80.1825 38.0604V39.5059H79.7458V36.8477H80.1825V37.2794C80.3312 36.9835 80.6143 36.7991 81.0318 36.7991V37.2551H80.9166C80.4992 37.2551 80.1825 37.4443 80.1825 38.0604Z" fill="white"/>
<path d="M81.3727 38.1671C81.3727 37.3376 81.9149 36.804 82.6203 36.804C83.1097 36.804 83.4456 37.0562 83.5991 37.3327V36.8477H84.0406V39.5059H83.5991V39.0111C83.4408 39.2973 83.1001 39.5496 82.6155 39.5496C81.9149 39.5496 81.3727 38.9917 81.3727 38.1671ZM83.5991 38.1719C83.5991 37.5559 83.1865 37.1872 82.7066 37.1872C82.2268 37.1872 81.8189 37.5413 81.8189 38.1671C81.8189 38.7928 82.2268 39.1615 82.7066 39.1615C83.1865 39.1615 83.5991 38.7977 83.5991 38.1719Z" fill="white"/>
<path d="M84.4666 36.8477H84.9368L85.7573 39.0984L86.5731 36.8477H87.0385L86.0068 39.5059H85.4982L84.4666 36.8477Z" fill="white"/>
<path d="M88.5862 37.1775C88.1591 37.1775 87.8041 37.4637 87.7561 37.9827H89.4163C89.4211 37.4637 89.0372 37.1775 88.5862 37.1775ZM89.8146 38.6861C89.6802 39.1712 89.258 39.5496 88.6054 39.5496C87.8568 39.5496 87.305 39.016 87.305 38.1719C87.305 37.3327 87.8376 36.804 88.6054 36.804C89.3683 36.804 89.8674 37.3473 89.8674 38.0749C89.8674 38.1719 89.8626 38.2495 89.853 38.3417H87.7513C87.7849 38.8801 88.1591 39.176 88.6054 39.176C88.9989 39.176 89.2484 38.9723 89.3443 38.6861H89.8146Z" fill="white"/>
<path d="M90.4437 39.5059V35.9163H90.8804V39.5059H90.4437Z" fill="white"/>
<path d="M92.9998 38.7783V37.2115H92.6591V36.8477H92.9998V36.1782H93.4364V36.8477H94.1226V37.2115H93.4364V38.7783C93.4364 39.0402 93.5324 39.1324 93.8011 39.1324H94.1226V39.5059H93.7291C93.2637 39.5059 92.9998 39.3119 92.9998 38.7783Z" fill="white"/>
<path d="M94.6517 39.5059V35.9163H95.0883V37.2309C95.2611 36.9495 95.5873 36.7991 95.9568 36.7991C96.5422 36.7991 97.0077 37.1775 97.0077 37.9391V39.5059H96.5758V38.0022C96.5758 37.4589 96.2831 37.1824 95.8417 37.1824C95.3954 37.1824 95.0883 37.4637 95.0883 38.0361V39.5059H94.6517Z" fill="white"/>
<path d="M98.8389 37.1775C98.4119 37.1775 98.0568 37.4637 98.0088 37.9827H99.6691C99.6739 37.4637 99.29 37.1775 98.8389 37.1775ZM100.067 38.6861C99.933 39.1712 99.5107 39.5496 98.8581 39.5496C98.1096 39.5496 97.5578 39.016 97.5578 38.1719C97.5578 37.3327 98.0904 36.804 98.8581 36.804C99.6211 36.804 100.12 37.3473 100.12 38.0749C100.12 38.1719 100.115 38.2495 100.106 38.3417H98.004C98.0376 38.8801 98.4119 39.176 98.8581 39.176C99.2516 39.176 99.5011 38.9723 99.5971 38.6861H100.067Z" fill="white"/>
<path d="M102.489 39.5059L101.664 36.8477H102.11L102.715 39.079L103.367 36.8477H103.814L104.452 39.0839L105.047 36.8477H105.479L104.658 39.5059H104.207L103.574 37.3958L102.94 39.5059H102.489Z" fill="white"/>
<path d="M108.407 38.1719C108.407 39.016 107.807 39.5496 107.059 39.5496C106.315 39.5496 105.749 39.016 105.749 38.1719C105.749 37.3327 106.334 36.804 107.078 36.804C107.826 36.804 108.407 37.3327 108.407 38.1719ZM106.195 38.1719C106.195 38.8462 106.603 39.1615 107.059 39.1615C107.515 39.1615 107.961 38.8462 107.961 38.1719C107.961 37.5025 107.524 37.1872 107.073 37.1872C106.612 37.1872 106.195 37.5025 106.195 38.1719Z" fill="white"/>
<path d="M109.418 38.0604V39.5059H108.981V36.8477H109.418V37.2794C109.567 36.9835 109.85 36.7991 110.267 36.7991V37.2551H110.152C109.734 37.2551 109.418 37.4443 109.418 38.0604Z" fill="white"/>
<path d="M110.771 39.5059V35.9163H111.208V39.5059H110.771Z" fill="white"/>
<path d="M111.789 38.1671C111.789 37.3376 112.331 36.804 113.041 36.804C113.454 36.804 113.833 37.0174 114.015 37.323V35.9163H114.457V39.5059H114.015V39.0063C113.857 39.3022 113.516 39.5496 113.036 39.5496C112.331 39.5496 111.789 38.9917 111.789 38.1671ZM114.015 38.1719C114.015 37.5559 113.603 37.1872 113.123 37.1872C112.643 37.1872 112.235 37.5413 112.235 38.1671C112.235 38.7928 112.643 39.1615 113.123 39.1615C113.603 39.1615 114.015 38.7977 114.015 38.1719Z" fill="white"/>
</g>
<defs>
<clipPath id="clip0_19_556">
<rect width="129" height="42" fill="white"/>
</clipPath>
</defs>
</svg>
